<?xml version="1.0" standalone="no"?>
<!DOCTYPE svg PUBLIC "-//W3C//DTD SVG 20010904//EN"
 "http://www.w3.org/TR/2001/REC-SVG-20010904/DTD/svg10.dtd">
<svg version="1.0" xmlns="http://www.w3.org/2000/svg"
 width="1194.000000pt" height="1280.000000pt" viewBox="0 0 1194.000000 1280.000000"
 preserveAspectRatio="xMidYMid meet">

<g transform="translate(0.000000,1280.000000) scale(0.100000,-0.100000)"
fill="#000000" stroke="none">
<path d="M6100 10636 c0 -60 87 -108 155 -86 39 13 85 62 85 91 0 28 -42 25
-55 -3 -26 -58 -106 -61 -133 -5 -17 35 -52 37 -52 3z"/>
<path d="M5900 10412 c0 -44 3 -127 7 -186 l6 -107 26 3 c29 3 28 -15 23 243
l-2 125 -30 0 -30 0 0 -78z"/>
<path d="M6050 10305 l0 -185 33 0 c31 0 38 8 132 144 l100 144 3 -144 3 -145
27 3 27 3 3 183 2 183 -37 -3 c-36 -3 -42 -9 -116 -113 -131 -184 -116 -182
-116 -22 l-1 137 -30 0 -30 0 0 -185z"/>
<path d="M5510 10473 c-3 -45 2 -297 7 -327 l6 -39 123 5 c139 5 166 16 190
75 19 43 5 93 -33 123 -22 17 -41 20 -129 20 l-104 0 0 44 c0 78 -10 106 -36
106 -13 0 -24 -3 -24 -7z m260 -213 c27 -27 25 -44 -6 -69 -22 -17 -41 -21
-110 -21 l-84 0 0 49 c0 58 1 58 108 60 60 1 75 -2 92 -19z"/>
<path d="M6666 10373 c-3 -60 -9 -143 -13 -185 l-6 -78 30 0 30 0 7 77 c3 42
6 100 6 130 0 29 3 53 8 53 4 0 32 -48 62 -108 69 -134 78 -137 140 -44 24 37
57 85 73 107 l29 40 -7 -100 c-3 -55 -8 -116 -11 -136 -5 -34 -4 -37 25 -41
29 -4 30 -3 35 41 3 25 8 96 11 156 4 61 9 122 11 138 5 26 4 27 -34 27 -38 0
-40 -1 -113 -110 -41 -60 -76 -109 -79 -110 -3 0 -33 56 -68 125 -61 123 -62
125 -95 125 l-34 0 -7 -107z"/>
<path d="M5361 10391 l4 -80 -85 -6 c-47 -3 -96 -7 -110 -8 -21 -2 -25 3 -32
38 -4 22 -7 57 -7 78 -1 28 -5 37 -18 37 -42 -1 -43 -7 -30 -190 l12 -175 28
-3 27 -3 0 79 0 79 68 6 c37 4 86 7 108 7 l41 0 7 -46 c3 -26 6 -60 6 -75 0
-26 4 -29 30 -29 35 0 34 -13 17 215 l-12 150 -29 3 -28 4 3 -81z"/>
<path d="M4926 10350 c7 -79 6 -81 -21 -110 -52 -54 -135 -33 -149 37 -3 15
-8 52 -11 80 -7 51 -8 53 -33 47 -15 -4 -28 -8 -30 -9 -5 -4 19 -151 29 -177
6 -15 27 -37 46 -49 42 -26 106 -22 151 10 39 28 42 27 42 -13 0 -18 3 -48 6
-65 6 -26 11 -31 36 -31 27 0 29 2 24 33 -6 36 -36 300 -36 317 0 5 -14 10
-30 10 l-30 0 6 -80z"/>
<path d="M7223 10410 c-41 -24 -61 -59 -42 -71 19 -12 49 -11 49 1 0 19 61 42
96 36 38 -8 74 -47 74 -82 0 -23 -3 -24 -79 -24 -89 0 -119 -8 -150 -41 -23
-25 -28 -86 -11 -120 25 -46 122 -64 180 -34 28 15 30 14 30 -5 0 -16 7 -20
30 -20 17 0 30 4 30 8 0 4 7 63 15 131 15 116 14 125 -2 160 -38 76 -146 107
-220 61z m167 -200 c0 -24 -30 -79 -48 -89 -12 -6 -37 -11 -57 -11 -69 0 -107
72 -52 98 29 14 157 15 157 2z"/>
<path d="M7560 10383 c0 -5 -11 -78 -25 -163 -31 -196 -31 -190 3 -190 l28 0
23 150 c13 83 26 150 30 150 4 0 34 -5 67 -10 32 -6 71 -12 87 -15 24 -4 27
-2 27 25 0 17 -3 30 -7 30 -5 0 -48 7 -98 15 -101 17 -135 18 -135 8z"/>
<path d="M4376 10370 c-84 -26 -136 -95 -136 -183 0 -67 12 -102 48 -141 69
-73 207 -77 286 -7 65 57 75 188 20 258 -54 68 -138 96 -218 73z m125 -65 c87
-45 93 -189 10 -238 -70 -41 -154 -25 -192 37 -24 39 -25 122 -3 155 40 56
124 77 185 46z"/>
<path d="M7909 10309 c-19 -12 -41 -29 -47 -40 -11 -17 -9 -21 13 -31 22 -10
28 -8 46 10 31 34 92 30 130 -8 20 -19 29 -38 27 -52 -3 -22 -7 -23 -81 -20
-129 5 -177 -23 -177 -104 0 -95 109 -143 199 -87 23 15 24 14 17 -10 -5 -21
-2 -25 22 -30 15 -3 28 -4 30 -3 1 2 13 60 27 130 29 143 26 172 -23 219 -53
51 -123 61 -183 26z m112 -199 c32 0 39 -3 39 -20 0 -11 -12 -34 -28 -51 -33
-36 -84 -43 -126 -16 -52 35 -16 105 48 93 16 -4 46 -6 67 -6z"/>
<path d="M3990 10290 c-129 -26 -135 -28 -132 -50 4 -33 4 -33 63 -21 29 6 56
8 59 4 4 -5 20 -72 35 -150 22 -114 31 -143 44 -143 41 1 42 11 12 161 -21
102 -26 146 -18 151 6 4 33 10 60 13 45 7 48 9 45 33 -2 15 -10 28 -18 28 -8
1 -76 -11 -150 -26z"/>
<path d="M8273 10231 c-37 -23 -40 -33 -18 -51 12 -10 21 -10 41 -1 66 30 134
4 134 -51 0 -39 -23 -52 -79 -44 -40 5 -50 3 -55 -10 -9 -22 -1 -30 36 -38 17
-3 40 -14 50 -23 38 -35 9 -93 -47 -93 -35 0 -92 35 -100 60 -7 21 -31 26 -53
11 -12 -7 -11 -14 2 -39 47 -91 181 -119 248 -52 31 31 36 69 14 109 -13 23
-11 27 15 52 43 40 41 96 -5 146 -30 33 -39 37 -92 40 -47 3 -66 0 -91 -16z"/>
<path d="M3565 10204 c-45 -23 -66 -45 -86 -89 -50 -109 8 -242 120 -276 83
-25 192 21 228 96 18 38 18 39 -14 49 -18 6 -25 1 -38 -24 -22 -43 -70 -70
-126 -70 -38 0 -53 6 -79 30 -17 16 -30 35 -28 42 3 7 68 28 146 48 77 19 144
38 147 42 11 11 -15 76 -43 110 -14 17 -41 37 -59 44 -43 19 -131 18 -168 -2z
m140 -48 c29 -13 74 -61 64 -70 -6 -5 -222 -56 -236 -56 -19 0 -15 41 7 78 34
55 100 75 165 48z"/>
<path d="M8565 10063 c-20 -65 -44 -144 -55 -175 l-19 -57 36 -10 c34 -10 37
-8 166 94 73 58 133 101 134 97 2 -4 -14 -63 -36 -132 -38 -127 -38 -139 1
-140 14 0 26 29 57 128 74 238 72 218 25 228 -26 5 -45 -6 -159 -95 -71 -55
-131 -99 -132 -97 -2 2 13 55 32 119 36 120 41 147 26 147 -5 0 -16 3 -24 6
-12 4 -23 -20 -52 -113z"/>
<path d="M3150 10079 c-52 -17 -99 -34 -103 -39 -8 -7 19 -106 75 -276 l23
-72 116 37 c148 46 179 70 179 135 0 28 -45 86 -66 86 -11 0 -12 4 -4 19 17
32 11 78 -13 106 -34 40 -90 41 -207 4z m165 -53 c17 -26 12 -51 -13 -61 -68
-28 -157 -54 -163 -48 -9 10 -32 83 -27 87 1 2 30 13 63 24 83 28 121 28 140
-2z m47 -133 c44 -39 13 -74 -98 -108 -43 -13 -79 -23 -80 -22 -6 9 -24 73
-24 86 0 11 21 23 68 37 84 27 110 28 134 7z"/>
<path d="M9003 10033 c-3 -10 -32 -85 -64 -168 -32 -82 -55 -152 -51 -156 4
-4 16 -10 27 -13 18 -5 24 3 45 60 14 36 28 68 32 70 7 5 187 -63 200 -75 5
-4 -4 -37 -19 -75 -23 -57 -25 -69 -12 -77 31 -20 44 -1 107 160 53 132 62
165 51 172 -33 20 -47 9 -70 -56 -12 -36 -27 -65 -33 -65 -24 0 -196 73 -196
84 0 6 10 39 22 73 24 67 24 67 -10 77 -16 6 -24 3 -29 -11z"/>
<path d="M2883 9987 c-21 -12 -21 -12 33 -150 30 -77 52 -142 49 -147 -2 -4
-46 -22 -96 -40 -104 -38 -95 -42 -135 65 -65 171 -70 180 -90 177 -10 -2 -22
-7 -27 -11 -4 -4 20 -78 53 -164 33 -86 60 -161 60 -167 0 -15 0 -15 155 45
79 30 146 55 148 55 3 0 11 -16 17 -36 11 -32 15 -35 39 -29 14 4 27 8 28 9 2
1 -7 30 -20 65 -19 54 -25 61 -46 59 -22 -3 -28 8 -80 140 -30 78 -58 142 -61
142 -3 -1 -15 -6 -27 -13z"/>
<path d="M4595 9258 l-100 -29 -55 23 c-69 29 -177 31 -230 5 -56 -27 -230
-198 -230 -224 0 -13 -4 -23 -10 -23 -19 0 -79 -62 -89 -93 -9 -26 -6 -49 13
-120 13 -49 28 -92 32 -96 69 -60 175 -126 235 -146 40 -14 78 -30 83 -35 16
-16 64 -11 108 11 34 17 47 19 82 11 22 -6 55 -8 72 -5 l31 5 16 -79 c24 -113
40 -240 33 -258 -3 -8 -15 -15 -26 -15 -11 0 -36 -7 -56 -15 -29 -12 -41 -27
-76 -102 -24 -50 -43 -108 -46 -135 -4 -41 -7 -47 -19 -36 -13 10 -19 8 -35
-12 -10 -13 -24 -43 -31 -66 l-11 -43 -68 102 c-37 56 -68 109 -68 118 0 8 20
39 45 68 25 29 45 55 45 57 0 12 -31 64 -39 64 -22 0 -71 -85 -71 -125 0 -14
-4 -25 -10 -25 -17 0 -11 35 15 94 25 56 25 56 5 76 -40 40 -70 12 -70 -68
l-1 -37 -22 30 c-12 16 -66 83 -120 148 l-99 118 21 67 c18 60 19 69 5 89 -36
56 -81 6 -69 -77 l7 -45 -55 54 c-46 44 -58 64 -72 115 -22 82 -35 106 -57
106 -36 0 -58 -19 -58 -50 0 -23 15 -42 83 -102 93 -83 259 -249 254 -255 -2
-2 -23 3 -46 12 -69 24 -133 29 -156 11 -19 -14 -19 -17 -5 -43 14 -25 21 -28
65 -28 28 0 76 3 107 7 37 4 62 2 72 -5 13 -10 0 -12 -64 -12 -99 -1 -121 -15
-96 -63 22 -43 39 -45 103 -11 87 46 94 42 195 -96 122 -166 118 -155 53 -137
-84 23 -135 -8 -85 -53 17 -15 31 -17 95 -12 l75 5 36 -59 c39 -64 36 -89 -11
-89 -32 0 -49 -24 -41 -61 7 -39 -8 -35 -46 12 -19 24 -32 56 -41 104 -9 53
-17 71 -30 73 -40 8 -61 -44 -36 -90 6 -11 9 -21 7 -23 -5 -5 -219 122 -237
140 -11 11 -16 34 -16 72 0 63 -19 88 -52 67 -27 -17 -26 -46 2 -88 14 -21 20
-36 13 -33 -7 3 -58 24 -112 47 -55 22 -106 46 -113 52 -7 6 -13 26 -13 45 0
44 -16 73 -40 73 -42 0 -43 -65 -2 -96 35 -27 -9 -13 -84 27 -87 45 -127 49
-132 11 -7 -46 19 -59 132 -64 110 -6 183 -27 94 -28 -53 0 -64 -10 -46 -42 7
-13 11 -27 10 -32 -4 -13 29 -46 45 -46 8 0 41 18 73 40 32 22 63 40 69 40 20
0 134 -60 120 -63 -8 -3 -33 -10 -56 -16 -50 -14 -59 -44 -18 -63 20 -9 37 -6
96 15 l72 27 46 -27 c25 -14 61 -36 80 -49 l33 -22 -44 0 c-53 1 -68 -6 -68
-32 0 -24 29 -40 61 -34 21 4 20 3 -3 -7 -32 -12 -36 -39 -10 -62 25 -23 41
-21 104 8 66 31 105 31 142 1 l30 -23 -51 -7 c-54 -7 -79 -26 -69 -51 11 -30
52 -36 127 -18 l70 17 52 -53 52 -52 -50 -45 c-27 -24 -53 -44 -57 -44 -5 0
-8 11 -8 24 0 41 -21 86 -40 86 -24 0 -78 -65 -92 -112 -11 -37 -28 -52 -28
-25 0 19 -69 97 -85 97 -18 0 -25 -12 -33 -61 l-7 -41 -27 21 c-53 42 -78 20
-61 -55 6 -24 8 -44 6 -44 -3 0 -27 12 -54 27 -39 23 -51 25 -61 15 -11 -11
-8 -22 15 -63 l28 -51 -28 6 c-71 14 -99 16 -112 7 -21 -14 -2 -51 43 -81 20
-14 36 -28 36 -31 0 -4 -21 -10 -47 -14 -91 -12 -123 -24 -123 -45 0 -15 14
-24 63 -38 l62 -19 -30 -11 c-58 -22 -80 -38 -83 -60 -3 -21 -1 -22 85 -22
l88 0 -25 -23 c-56 -50 -90 -98 -90 -127 0 -23 5 -30 20 -30 16 0 19 -5 14
-29 -10 -51 30 -53 101 -6 30 21 36 23 30 8 -35 -82 -40 -104 -26 -113 17 -10
44 2 79 33 l22 20 0 -25 c0 -64 35 -78 72 -28 24 32 38 38 38 16 0 -8 7 -22
16 -30 23 -23 48 -5 70 49 11 25 21 45 24 45 3 0 14 -14 24 -31 13 -21 24 -29
39 -27 20 3 22 9 21 74 l0 70 50 -33 c27 -19 59 -33 70 -31 18 3 21 10 20 49
l0 47 33 -16 c26 -12 38 -14 51 -5 9 6 16 16 15 22 -2 6 -4 16 -5 23 -6 28 33
16 86 -27 l56 -46 0 -62 c0 -34 -4 -67 -8 -73 -11 -17 -98 -24 -197 -15 -49 4
-93 5 -97 2 -4 -4 17 -103 47 -221 105 -418 148 -696 149 -960 1 -213 -7 -258
-67 -372 -77 -147 -214 -282 -367 -362 -78 -41 -124 -54 -237 -67 -192 -22
-287 -60 -376 -151 -76 -78 -97 -113 -97 -166 0 -80 45 -148 148 -224 65 -49
142 -83 242 -110 97 -25 381 -36 538 -19 167 17 377 92 606 216 45 25 87 45
93 45 6 0 11 -31 12 -72 1 -40 5 -76 9 -80 11 -11 527 88 555 107 35 22 47 57
47 134 0 45 6 79 17 102 14 27 18 58 17 144 -1 156 -16 205 -120 405 -25 46
-30 69 -32 146 -4 101 11 176 55 278 55 128 112 316 134 441 18 104 23 170 23
328 1 146 4 197 13 197 23 0 24 22 8 127 -10 61 -15 144 -13 193 l3 85 -70 3
c-65 3 -295 -12 -368 -24 -31 -5 -31 -4 27 48 l58 53 94 0 c60 0 97 4 105 12
21 21 0 28 -78 26 l-74 -2 57 41 c75 52 89 57 140 46 52 -11 106 -7 111 8 3 7
-21 14 -64 19 l-68 8 65 29 c57 27 68 29 101 19 40 -12 89 -14 113 -5 27 10 7
24 -35 24 -62 0 -46 13 43 35 45 11 84 26 86 33 6 19 -31 15 -104 -13 -80 -30
-79 -30 -60 -3 9 12 16 28 16 35 0 26 -28 12 -56 -28 -21 -31 -45 -49 -92 -70
-35 -16 -66 -29 -68 -29 -2 0 4 16 13 35 13 27 14 38 5 47 -17 17 -37 -5 -52
-56 -7 -25 -22 -53 -34 -64 -24 -21 -124 -92 -130 -92 -2 0 2 17 10 38 17 49
17 62 -1 62 -23 0 -49 -49 -48 -91 2 -36 -3 -42 -82 -108 -46 -39 -86 -71 -89
-71 -13 0 91 224 139 300 20 31 31 38 81 49 79 18 120 39 105 54 -9 9 -27 6
-74 -10 -34 -12 -63 -21 -64 -19 -1 1 14 25 33 53 34 47 39 51 88 57 67 7 113
24 120 42 7 19 -53 19 -101 -1 -20 -8 -38 -13 -41 -11 -2 3 17 32 43 65 41 55
50 61 83 62 49 1 114 21 120 37 5 15 -29 16 -81 1 -22 -6 -41 -9 -43 -7 -2 3
9 20 25 38 22 27 42 38 92 50 34 8 65 21 67 29 5 14 -22 13 -73 -4 -26 -9 28
43 113 107 60 47 82 88 47 88 -19 0 -97 -72 -145 -134 -40 -51 -50 -56 -50
-23 0 30 -24 62 -38 53 -7 -4 -12 -34 -12 -70 0 -47 -5 -70 -18 -87 l-19 -22
-12 46 c-7 28 -17 47 -25 47 -22 0 -27 -30 -17 -86 10 -52 7 -59 -58 -144 -22
-28 -23 -28 -42 25 -16 44 -49 61 -49 25 0 -12 9 -43 21 -70 l21 -49 -37 -51
c-41 -55 -55 -62 -55 -26 0 37 -18 76 -35 76 -20 0 -19 -25 5 -94 l19 -56 -37
-63 c-20 -34 -58 -111 -84 -172 l-48 -110 -51 -13 c-28 -7 -53 -11 -55 -9 -6
6 20 114 56 237 50 166 175 524 192 546 4 6 35 14 67 17 172 15 280 146 269
328 -3 50 -9 76 -26 98 -12 17 -22 33 -22 35 0 9 118 66 135 66 32 0 10 -35
-43 -69 -29 -19 -50 -36 -48 -38 10 -10 95 37 111 61 46 69 -27 82 -124 22
-51 -31 -111 -48 -111 -31 0 5 89 187 95 193 1 1 28 9 59 17 109 29 192 88
169 123 -20 31 -77 12 -172 -56 -23 -15 -21 -10 15 56 21 40 65 105 97 145 96
119 118 183 75 211 -40 25 -85 -37 -117 -160 -13 -49 -25 -96 -27 -104 -2 -8
-26 -53 -53 -98 l-48 -84 -17 69 c-21 81 -56 133 -92 133 -34 0 -48 -38 -33
-93 7 -28 28 -57 65 -93 l55 -52 -49 -103 -48 -103 -32 66 c-18 37 -32 77 -32
89 0 58 -93 157 -163 175 -15 3 -27 7 -27 8 0 2 11 35 25 76 45 131 111 190
235 209 80 13 160 51 160 77 0 24 -29 74 -43 74 -32 -1 -104 -46 -171 -107
-41 -37 -88 -78 -105 -91 l-30 -22 39 100 c52 132 61 148 110 195 80 76 118
153 88 183 -16 16 -160 16 -176 0 -17 -17 -15 -70 4 -153 l17 -71 -63 -159
c-34 -88 -73 -192 -86 -231 l-25 -71 -59 -6 c-84 -7 -153 -48 -207 -121 -24
-32 -43 -54 -43 -50 0 39 30 97 76 150 79 90 72 133 -23 140 -51 3 -83 -15
-83 -46 0 -9 9 -44 21 -78 20 -59 20 -64 4 -112 -9 -28 -20 -48 -24 -46 -4 3
-31 52 -60 109 -45 88 -52 107 -42 125 16 29 14 116 -3 157 -16 38 -44 46 -66
20 -7 -9 -19 -14 -25 -11 -7 2 -25 -2 -40 -10 -15 -8 -28 -14 -30 -14 -4 0
-25 87 -25 103 0 9 14 17 38 21 20 4 50 12 65 18 27 11 57 53 57 81 0 8 17 22
38 30 21 9 54 28 72 44 45 37 168 225 176 269 12 65 -17 115 -115 198 -48 40
-97 78 -109 85 -32 17 -78 12 -187 -21z m266 -74 c98 -83 119 -114 119 -171
-1 -68 -36 -95 -154 -117 -41 -8 -105 -24 -141 -35 -79 -25 -129 -28 -80 -6
22 11 25 14 11 15 -18 0 -18 1 -3 13 11 8 14 17 8 26 -13 20 -32 3 -27 -24 3
-17 -1 -25 -16 -28 -11 -3 -17 -10 -13 -16 3 -7 0 -8 -9 -5 -17 6 -15 11 17
57 10 16 17 31 14 33 -10 10 -48 -36 -53 -65 -5 -24 -12 -30 -47 -35 -24 -4
-43 -3 -47 3 -7 13 -85 41 -111 41 -33 0 -20 -20 14 -21 17 -1 43 -5 57 -10
19 -7 16 -7 -14 -3 -32 5 -38 3 -33 -10 5 -12 0 -16 -16 -16 -26 0 -54 -16
-45 -26 4 -4 21 -1 38 6 17 7 33 10 37 7 3 -3 -7 -9 -21 -13 -20 -5 -25 -11
-21 -25 4 -11 2 -19 -4 -19 -6 0 -11 -4 -11 -10 0 -5 12 -10 28 -10 15 0 59
-11 97 -25 51 -18 92 -25 150 -25 99 -2 115 -7 104 -37 -11 -30 -30 -38 -132
-58 l-88 -17 -79 31 c-51 20 -97 31 -128 31 -37 0 -66 9 -116 36 -37 19 -89
38 -115 41 -68 8 -80 17 -57 41 20 23 196 99 271 118 l50 12 -46 1 c-26 1 -66
-6 -89 -14 -35 -12 -46 -13 -59 -3 -56 46 -106 134 -96 170 9 31 139 163 194
199 39 25 54 29 117 29 50 0 87 -6 120 -20 46 -20 46 -21 29 -40 -18 -20 -19
-20 -47 12 l-30 33 22 -38 c22 -38 22 -39 4 -80 -24 -53 -24 -179 0 -226 21
-39 28 -40 15 -2 -5 15 -9 32 -8 37 1 5 -1 17 -6 27 -12 28 1 120 23 163 36
71 72 95 184 125 57 15 113 26 126 23 13 -3 64 -39 113 -80z m-868 -229 c9
-19 35 -55 58 -80 23 -25 40 -46 38 -48 -2 -1 -35 -18 -74 -37 -38 -19 -72
-36 -76 -37 -10 -6 -41 135 -34 156 7 24 53 81 64 81 4 0 15 -16 24 -35z
m1397 -82 c-11 -14 -20 -34 -20 -44 0 -10 -4 -21 -10 -24 -6 -4 -10 12 -10 40
0 38 4 47 23 54 33 13 40 3 17 -26z m116 14 c3 -8 0 -26 -5 -41 -12 -30 -98
-126 -114 -126 -12 0 0 116 16 141 21 34 92 53 103 26z m-586 -4 c-1 -21 -91
-131 -129 -158 -41 -29 -48 -30 -159 -33 -104 -3 -124 -1 -180 20 -35 13 -64
28 -65 33 -1 6 22 22 52 38 40 20 70 27 110 27 32 0 90 11 136 26 116 37 235
61 235 47z m-1285 -245 c9 -29 19 -60 21 -68 3 -8 -15 5 -40 30 -56 54 -62 90
-15 90 12 0 22 -15 34 -52z m481 1 c99 -52 116 -81 29 -48 -55 21 -131 78
-104 79 9 0 43 -14 75 -31z m1465 -43 c-21 -22 -107 -53 -118 -42 -11 11 82
66 110 66 l30 0 -22 -24z m-1219 -24 c14 -14 -62 -37 -94 -28 -31 8 -61 33
-55 43 7 12 135 -1 149 -15z m1247 1 c-20 -23 -89 -53 -124 -53 -22 1 -12 7
40 24 38 13 71 29 73 35 2 6 8 11 14 11 6 0 4 -7 -3 -17z m-1765 -28 c7 -18
-24 -86 -36 -79 -9 6 -11 55 -2 78 8 20 30 21 38 1z m1986 -34 c0 -26 -97
-167 -107 -157 -10 9 39 151 59 173 25 27 48 19 48 -16z m-1101 -82 c12 -36
15 -139 4 -139 -14 0 -63 87 -63 110 0 23 25 60 41 60 4 0 12 -14 18 -31z
m-62 -85 c21 -32 11 -30 -32 7 -41 37 -42 42 -12 72 l22 22 3 -39 c2 -21 10
-49 19 -62z m82 -147 c16 -34 40 -78 52 -97 23 -34 22 -34 -29 12 -29 26 -69
52 -90 59 -53 17 -59 24 -66 82 -4 28 -10 63 -13 76 -5 22 0 20 56 -23 48 -37
68 -61 90 -109z m169 111 c15 -15 14 -53 -3 -98 -13 -37 -14 -36 -35 32 -18
60 5 99 38 66z m60 0 c20 -20 14 -46 -18 -80 l-30 -33 10 28 c5 16 10 44 10
63 0 36 8 42 28 22z m-1173 -7 c49 -10 31 -19 -45 -23 -45 -3 -55 0 -58 15 -3
13 3 17 30 16 18 0 51 -4 73 -8z m1699 -20 c18 -19 56 -129 56 -159 0 -25 -89
78 -99 116 -17 58 8 82 43 43z m-1604 -61 c0 -5 -6 -10 -12 -10 -7 0 -24 -9
-38 -20 -30 -24 -56 -25 -64 -4 -10 26 -7 32 17 37 44 8 97 7 97 -3z m228 -23
c8 -9 4 -23 -14 -52 l-24 -40 0 37 c0 61 15 83 38 55z m1085 -7 c10 0 15 -4
12 -10 -3 -5 -16 -10 -27 -10 -12 0 -51 -17 -87 -37 -69 -39 -191 -85 -191
-73 0 15 73 81 112 101 46 23 114 39 143 33 11 -2 28 -4 38 -4z m581 -5 c-8
-19 -67 -53 -133 -76 -30 -11 -57 -19 -60 -19 -3 0 30 25 74 55 76 53 131 72
119 40z m-1109 -44 c83 -38 148 -128 181 -253 27 -100 44 -102 25 -1 -9 45 5
101 34 133 9 10 37 23 62 29 51 13 103 38 159 76 49 33 118 34 164 3 127 -87
70 -281 -107 -369 -38 -19 -69 -37 -71 -41 -8 -19 -31 -5 -34 19 -2 18 -10 29
-23 31 -11 3 -28 13 -38 23 -15 16 -22 17 -39 8 -17 -9 -23 -8 -30 5 -10 19
-39 21 -55 5 -6 -6 -33 -13 -60 -15 -45 -4 -74 -22 -85 -54 -5 -14 -129 15
-190 45 -30 15 -80 47 -111 72 -49 39 -57 49 -57 79 0 35 52 165 78 197 34 39
119 43 197 8z m-475 1 c0 -10 -14 -31 -31 -48 l-31 -29 7 25 c16 56 55 93 55
52z m-727 -64 c4 -12 4 -24 1 -27 -6 -7 -24 20 -24 37 0 21 17 13 23 -10z
m-105 -47 c13 -8 5 -10 -34 -11 -51 0 -83 18 -70 39 6 10 67 -7 104 -28z m392
-50 c0 -9 -4 -22 -9 -30 -7 -11 -11 -9 -21 8 -6 13 -9 29 -6 37 7 18 36 7 36
-15z m1679 -123 c2 -16 -26 -7 -47 15 -20 21 -20 26 -9 56 l12 33 22 -49 c12
-26 22 -51 22 -55z m-1943 81 c-26 -6 -43 -6 -50 1 -7 7 6 10 40 9 l49 -1 -39
-9z m32 -34 c-39 -27 -72 -33 -66 -12 4 12 60 35 88 36 8 1 -2 -10 -22 -24z
m605 -4 c18 -18 -75 -14 -99 5 -18 14 -15 15 34 11 29 -2 58 -9 65 -16z m221
-38 c5 -11 -3 -27 -24 -47 -24 -25 -30 -27 -30 -13 0 23 28 77 39 77 5 0 12
-8 15 -17z m204 -89 c30 -14 82 -31 115 -38 86 -18 91 -41 7 -32 -117 13 -225
67 -256 128 -25 48 -15 51 32 9 26 -22 71 -52 102 -67z m822 46 c-35 -28 -101
-66 -127 -74 -15 -5 1 16 45 61 66 68 67 69 87 51 20 -19 20 -19 -5 -38z
m-1585 21 c-21 -18 -107 -41 -124 -31 -14 8 -14 9 3 16 52 20 138 31 121 15z
m592 -49 c-38 -4 -42 1 -21 33 l17 26 17 -28 17 -28 -30 -3z m1167 32 c10 -9
16 -33 16 -59 0 -42 -3 -47 -51 -85 -63 -49 -83 -74 -98 -121 -13 -41 -63 -93
-104 -108 -16 -6 -45 -11 -67 -11 -34 0 -44 7 -100 66 -34 36 -69 82 -78 100
-15 33 -15 35 6 50 12 8 22 21 22 28 0 9 22 15 70 19 78 7 132 28 217 85 32
21 65 42 73 45 30 11 79 7 94 -9z m-1494 -16 c0 -13 3 -34 6 -48 5 -19 4 -22
-5 -14 -17 15 -27 84 -12 84 6 0 11 -10 11 -22z m880 -18 c0 -5 -7 -10 -15
-10 -8 0 -15 5 -15 10 0 6 7 10 15 10 8 0 15 -4 15 -10z m-73 -16 c-3 -3 -12
-4 -19 -1 -8 3 -5 6 6 6 11 1 17 -2 13 -5z m138 -4 c-3 -5 -10 -10 -16 -10 -5
0 -9 5 -9 10 0 6 7 10 16 10 8 0 12 -4 9 -10z m-520 -30 c55 -33 50 -38 -15
-15 -23 8 -50 15 -59 14 -25 -1 130 -51 169 -54 19 -2 70 -3 112 -4 68 -1 80
-4 100 -25 13 -14 34 -26 48 -28 16 -2 26 -10 28 -24 7 -48 -173 -154 -261
-154 -63 0 -93 17 -151 85 -31 36 -69 66 -107 85 -63 32 -82 56 -77 98 2 21
11 30 38 39 62 21 120 16 175 -17z m335 9 c0 -5 -7 -9 -15 -9 -15 0 -20 12 -9
23 8 8 24 -1 24 -14z m130 -14 c0 -9 -6 -12 -15 -9 -8 4 -15 10 -15 15 0 5 7
9 15 9 8 0 15 -7 15 -15z m120 0 c0 -8 -9 -15 -20 -15 -11 0 -20 7 -20 15 0 8
9 15 20 15 11 0 20 -7 20 -15z m-180 -21 c0 -8 -4 -12 -10 -9 -5 3 -10 10 -10
16 0 5 5 9 10 9 6 0 10 -7 10 -16z m115 6 c-3 -5 -10 -10 -16 -10 -5 0 -9 5
-9 10 0 6 7 10 16 10 8 0 12 -4 9 -10z m-772 -68 l4 -53 -18 28 c-22 32 -25
79 -6 86 15 5 14 6 20 -61z m567 52 c0 -9 -5 -14 -12 -12 -18 6 -21 28 -4 28
9 0 16 -7 16 -16z m-815 -4 c-28 -12 -73 -12 -80 0 -4 6 14 10 47 9 39 0 48
-3 33 -9z m960 0 c3 -5 2 -10 -4 -10 -5 0 -13 5 -16 10 -3 6 -2 10 4 10 5 0
13 -4 16 -10z m126 -13 c-1 -12 -15 -9 -19 4 -3 6 1 10 8 8 6 -3 11 -8 11 -12z
m484 -113 c-30 -62 -91 -117 -155 -139 -66 -23 -77 -18 -32 15 29 21 52 51 76
99 26 51 47 77 83 103 l48 35 3 -30 c2 -17 -8 -51 -23 -83z m-615 85 c0 -6 -4
-7 -10 -4 -5 3 -10 11 -10 16 0 6 5 7 10 4 6 -3 10 -11 10 -16z m57 15 c-3 -3
-12 -4 -19 -1 -8 3 -5 6 6 6 11 1 17 -2 13 -5z m-157 -8 c0 -11 -19 -15 -25
-6 -3 5 1 10 9 10 9 0 16 -2 16 -4z m-815 -37 c-43 -20 -76 -21 -82 -2 -5 13
23 20 82 21 l40 0 -40 -19z m255 6 c7 -8 38 -29 70 -46 54 -28 147 -129 119
-129 -23 0 -134 66 -165 98 -18 19 -37 47 -43 63 -11 31 -1 38 19 14z m630 6
c0 -18 -17 -20 -36 -6 -18 14 -18 14 9 15 15 0 27 -4 27 -9z m65 -1 c3 -6 -4
-10 -17 -10 -18 0 -20 2 -8 10 19 12 18 12 25 0z m69 -39 c9 -8 15 -19 13 -25
-5 -14 22 -69 67 -131 20 -27 36 -58 36 -67 0 -10 4 -18 9 -18 16 0 -1 44 -41
102 -60 89 -56 94 16 19 79 -81 95 -127 55 -155 -36 -25 -101 -20 -192 16 -70
28 -92 32 -152 29 -38 -2 -104 -4 -145 -5 -74 -1 -75 -1 -78 26 -3 22 2 28 35
38 80 26 150 69 203 126 53 57 57 59 106 59 29 0 58 -6 68 -14z m-806 -51 c11
0 13 -3 6 -10 -15 -15 -126 -18 -131 -3 -5 13 38 23 81 17 16 -2 36 -4 44 -4z
m180 -111 c21 -34 6 -33 -18 0 -12 18 -16 29 -8 26 7 -3 19 -15 26 -26z m112
-85 c45 -83 46 -84 25 -84 -8 0 -15 6 -15 14 0 8 -10 16 -22 18 -16 2 -28 18
-45 63 -28 72 -28 74 -3 68 11 -3 36 -35 60 -79z m-284 0 c7 -58 -15 -153 -52
-227 -14 -27 -23 -51 -21 -54 10 -10 56 65 72 117 28 94 41 114 97 158 30 23
58 42 61 42 4 0 7 -12 7 -27 -1 -58 -64 -162 -150 -243 -59 -57 -67 -61 -93
-55 -22 6 -25 11 -20 39 3 17 0 57 -6 88 -10 54 -8 61 21 125 54 117 74 126
84 37z m359 32 c0 -15 8 -33 16 -40 9 -6 21 -21 27 -33 14 -26 16 -152 3 -137
-13 13 -131 227 -131 237 0 5 19 7 42 5 38 -3 41 -5 43 -32z m-553 -33 c32
-37 59 -107 70 -182 19 -130 -11 -152 -60 -43 -47 104 -63 182 -46 226 8 21
17 20 36 -1z m963 -39 c65 -22 86 -32 60 -29 -22 3 -103 12 -180 20 -77 9
-151 18 -165 22 -21 6 -19 8 20 13 104 16 162 10 265 -26z m-555 -15 c0 -9
-40 -39 -51 -39 -4 0 0 18 9 41 14 37 17 39 29 23 7 -10 13 -21 13 -25z m-504
-4 c25 -19 35 -37 45 -81 7 -31 28 -82 46 -113 l34 -56 -65 70 c-68 73 -106
138 -106 180 0 31 5 31 46 0z m929 -14 c21 -6 21 -7 -12 -186 -17 -99 -38
-206 -44 -239 l-12 -59 -18 34 c-9 19 -38 84 -63 146 -45 109 -46 115 -46 218
l0 106 88 -7 c48 -4 96 -10 107 -13z m-381 -20 c-5 -4 -35 -20 -68 -35 -43
-19 -55 -22 -45 -9 8 9 37 26 64 39 48 21 69 23 49 5z m571 4 c44 0 89 3 101
8 19 7 13 -16 -55 -220 -42 -126 -90 -280 -106 -345 l-29 -116 -37 -11 c-63
-19 -64 -18 -89 76 -26 98 -26 101 30 403 45 242 37 220 74 212 17 -4 67 -7
111 -7z m-447 -90 c26 -49 27 -53 25 -205 -6 -349 -27 -398 -57 -132 l-18 152
24 20 c22 19 22 20 4 35 -10 8 -24 16 -30 19 -6 2 -1 11 12 21 37 28 23 55
-29 55 -26 0 -25 30 4 73 24 38 24 38 65 -38z m-741 25 c74 -49 175 -154 167
-175 -7 -17 -6 -17 -89 41 -63 45 -120 101 -148 147 -25 39 -4 35 70 -13z
m642 14 c-37 -40 -104 -84 -209 -137 -52 -26 -81 -45 -65 -41 68 15 135 19
227 13 94 -6 119 -12 105 -25 -15 -15 -151 -35 -249 -37 -59 -1 -105 -4 -103
-6 3 -2 42 -7 88 -11 63 -6 98 -16 145 -39 34 -17 62 -34 62 -38 0 -12 -148 7
-239 32 -51 15 -95 24 -98 22 -2 -3 35 -20 83 -38 66 -25 99 -44 138 -81 l51
-49 -40 4 c-52 6 -196 76 -274 134 -3 2 5 13 16 26 27 29 43 61 43 85 0 44
134 144 253 188 83 31 96 30 66 -2z m-9 -68 c0 -8 -14 -16 -32 -18 l-32 -5 23
18 c28 23 41 24 41 5z m-682 -26 c67 -30 192 -113 192 -127 0 -16 -1 -16 -74
2 -101 24 -256 113 -256 147 0 16 83 2 138 -22z m724 -26 c-27 -18 -172 -33
-172 -17 0 13 78 30 145 32 48 1 49 0 27 -15z m-383 -53 c39 -25 -50 -141
-108 -141 -28 0 -31 3 -31 31 0 36 16 69 44 89 41 30 70 36 95 21z m-291 -46
c61 -22 62 -23 31 -29 -91 -18 -171 -19 -234 -1 -36 9 -65 21 -65 25 0 10 171
39 190 32 8 -3 43 -15 78 -27z m872 -125 c50 -121 51 -127 45 -195 -10 -121
-15 -135 -40 -135 -14 0 -37 16 -60 42 l-38 41 7 146 c9 197 17 271 27 246 4
-11 31 -76 59 -145z m-194 29 c6 -46 15 -111 19 -143 l7 -59 -32 24 c-44 33
-90 79 -90 90 0 5 16 9 36 9 33 0 36 2 30 24 -3 14 -2 28 4 31 22 14 7 36 -41
64 l-52 29 44 10 c24 5 49 9 54 8 6 -2 15 -41 21 -87z m-548 49 c-5 -19 -104
-65 -164 -78 -28 -6 -91 -10 -140 -8 l-89 3 40 21 c48 26 119 43 240 60 119
16 117 16 113 2z m-13 -58 c-34 -55 -291 -227 -311 -208 -20 21 118 168 158
168 13 0 52 13 88 29 67 29 77 30 65 11z m229 -81 c64 -61 97 -100 101 -120 4
-17 4 -33 1 -36 -23 -24 -146 76 -203 165 -18 28 -36 52 -38 52 -3 0 3 -18 12
-41 23 -58 13 -197 -18 -262 -32 -65 -48 -61 -51 11 -3 85 -3 99 4 197 7 88 7
89 -7 42 -16 -58 -66 -143 -119 -203 -36 -42 -73 -70 -82 -62 -8 8 60 137 122
231 60 90 68 98 92 93 15 -3 38 1 52 9 14 8 28 14 32 15 4 0 50 -41 102 -91z
m276 45 c24 -23 -62 -18 -91 5 l-24 19 50 -5 c28 -3 57 -12 65 -19z m-159 -73
c57 -24 95 -61 63 -61 -27 0 -80 29 -110 62 -16 17 -24 29 -19 27 6 -2 36 -15
66 -28z m-450 -40 c-32 -44 -155 -130 -168 -117 -10 10 33 50 107 100 78 52
88 55 61 17z m295 -104 c4 -44 3 -77 -2 -77 -5 0 -18 13 -29 28 -15 20 -21 47
-23 102 l-4 75 26 -25 c22 -21 27 -37 32 -103z m-184 1 c-3 -55 -8 -67 -34
-90 -17 -16 -35 -28 -39 -28 -14 0 -11 37 6 77 13 32 61 103 69 103 1 0 0 -28
-2 -62z m838 -19 c10 -43 10 -53 -1 -60 -25 -15 -29 -10 -29 35 0 40 7 76 15
76 2 0 9 -23 15 -51z m-222 -41 c-3 -26 -8 -51 -12 -55 -14 -14 -18 9 -11 62
8 69 29 64 23 -7z m1020 -5 l-3 -57 -70 -18 c-98 -25 -344 -65 -505 -83 -148
-16 -599 -39 -669 -33 -43 3 -44 4 -57 48 -8 25 -14 45 -14 45 0 0 69 0 153 1
169 1 275 16 492 69 213 52 415 80 608 84 l68 1 -3 -57z m-958 -41 c-39 -4
-43 -1 -34 32 l7 27 29 -28 30 -28 -32 -3z m964 -79 l6 -42 -68 -20 c-191 -57
-453 -81 -894 -81 l-319 0 -8 23 c-5 12 -7 25 -5 29 3 4 92 7 199 8 344 1 736
43 1005 108 41 10 75 18 76 18 1 -1 4 -20 8 -43z m9 -80 c14 -50 16 -72 9 -77
-16 -9 -313 -45 -477 -57 -158 -11 -789 -19 -798 -9 -2 3 -7 17 -11 33 l-6 27
297 0 c439 0 710 23 880 74 98 30 101 30 106 9z m-20 -225 c17 -245 -38 -571
-132 -781 -106 -238 -112 -384 -22 -557 43 -84 100 -236 90 -244 -2 -1 -60 -7
-129 -14 -213 -18 -382 -78 -682 -241 -117 -63 -248 -111 -305 -111 -23 0 -45
-4 -48 -10 -9 -15 62 -12 130 5 70 19 196 76 325 150 185 105 425 182 602 192
96 5 108 4 108 -10 0 -9 -10 -19 -22 -21 -13 -3 -72 -14 -133 -26 -235 -45
-412 -108 -565 -200 -184 -111 -310 -162 -493 -202 -85 -18 -134 -22 -297 -22
-227 0 -300 13 -425 73 -117 56 -268 191 -215 191 6 0 55 -29 108 -64 113 -76
208 -122 277 -136 74 -15 375 -25 375 -13 0 6 -67 12 -172 16 -136 4 -187 10
-238 26 -69 22 -191 89 -279 154 l-55 40 47 43 c73 66 141 87 395 122 94 13
233 80 335 161 129 102 235 251 278 391 22 69 24 92 23 285 0 168 -5 239 -23
355 -21 131 -69 382 -86 453 l-7 27 219 0 c261 0 573 14 772 36 79 8 145 14
146 12 9 -9 -18 -423 -31 -477 -38 -160 -183 -348 -364 -471 -69 -47 -75 -67
-8 -27 67 40 184 143 244 215 65 78 138 223 153 302 5 30 13 134 16 230 8 240
8 240 49 240 l33 0 6 -92z m-60 -1741 c-3 -29 -9 -55 -12 -60 -4 -4 -66 -16
-137 -27 -221 -32 -379 -79 -473 -139 -86 -55 -355 -180 -476 -220 -220 -73
-562 -84 -775 -24 -178 50 -330 182 -330 288 0 43 8 44 45 5 44 -46 163 -125
230 -153 129 -53 184 -62 410 -62 184 0 223 3 314 23 178 40 351 110 488 198
105 67 212 113 360 155 97 27 346 78 355 73 4 -3 4 -28 1 -57z m-33 -187 c0
-76 -15 -104 -62 -115 -36 -8 -453 -85 -461 -85 -4 0 -7 34 -7 75 l0 75 38 16
c97 41 362 101 455 103 l37 1 0 -70z"/>
<path d="M4311 9198 c2 -2 20 -16 39 -33 l35 -30 -29 33 c-17 17 -34 32 -40
32 -5 0 -7 -1 -5 -2z"/>
<path d="M4269 9156 c28 -30 22 -34 -14 -10 -45 29 -26 8 34 -40 53 -41 60
-44 58 -24 -1 12 -19 38 -40 58 -47 42 -72 53 -38 16z m56 -46 c10 -11 14 -20
8 -20 -5 0 -18 9 -28 20 -10 11 -14 20 -8 20 5 0 18 -9 28 -20z"/>
<path d="M4550 9138 c-12 -26 -19 -63 -18 -93 l1 -50 7 55 c4 30 14 72 23 93
22 51 11 47 -13 -5z"/>
<path d="M4447 9063 c-2 -21 -1 -45 4 -53 5 -10 9 4 9 38 0 61 -6 68 -13 15z"/>
<path d="M4826 9043 c-36 -36 -44 -40 -29 -18 29 44 35 55 29 55 -10 0 -65
-87 -59 -93 3 -4 0 -15 -8 -24 -11 -15 18 7 56 42 15 14 68 85 64 85 -3 0 -26
-21 -53 -47z"/>
<path d="M4076 9009 c12 -20 94 -59 163 -78 97 -27 104 -20 9 9 -40 12 -97 34
-125 50 -29 15 -51 24 -47 19z"/>
<path d="M4877 8963 c-61 -38 -72 -56 -15 -27 35 18 95 65 81 63 -4 0 -34 -17
-66 -36z"/>
<path d="M4609 8954 c-12 -14 -11 -16 5 -13 11 2 21 10 24 17 5 17 -13 15 -29
-4z"/>
<path d="M4470 8946 c0 -25 12 -76 19 -76 3 0 5 20 3 45 -2 25 -8 45 -13 45
-5 0 -9 -6 -9 -14z"/>
<path d="M4516 8904 c-4 -20 -5 -38 -2 -41 2 -3 8 11 12 31 3 21 4 39 1 42 -2
3 -8 -11 -11 -32z"/>
<path d="M4443 8914 c-3 -8 -1 -25 5 -37 10 -20 11 -18 11 16 1 39 -5 48 -16
21z"/>
<path d="M4125 8900 c22 -11 49 -19 60 -19 15 0 12 4 -11 14 -17 8 -44 16 -60
20 -25 4 -23 2 11 -15z"/>
<path d="M4362 8888 c7 -19 38 -22 38 -4 0 10 -9 16 -21 16 -12 0 -19 -5 -17
-12z"/>
<path d="M4645 8880 c-3 -5 1 -10 9 -10 9 0 16 5 16 10 0 6 -4 10 -9 10 -6 0
-13 -4 -16 -10z"/>
<path d="M4160 8814 c-45 -16 -74 -34 -54 -34 6 0 41 11 80 24 41 15 59 25 44
25 -14 0 -45 -7 -70 -15z"/>
<path d="M4178 8760 c-54 -36 -93 -78 -43 -46 67 43 105 69 105 72 0 10 -21 1
-62 -26z"/>
<path d="M4177 8724 c-27 -20 -46 -38 -43 -41 5 -5 106 66 106 74 0 9 -20 -1
-63 -33z"/>
<path d="M4367 8653 c-20 -14 -35 -28 -33 -31 3 -2 24 10 48 27 23 17 38 31
32 31 -5 0 -26 -12 -47 -27z"/>
<path d="M3950 8840 c8 -5 33 -9 55 -9 35 1 37 2 15 9 -14 4 -38 8 -55 9 -23
0 -26 -2 -15 -9z"/>
<path d="M4803 8798 l-22 -43 -1 40 c-2 35 -3 37 -10 15 -4 -14 -8 -40 -9 -59
-1 -29 1 -32 15 -20 19 16 56 87 52 100 -2 6 -13 -9 -25 -33z"/>
<path d="M4570 8771 c0 -10 67 -71 77 -71 4 0 -11 18 -32 40 -42 43 -45 45
-45 31z"/>
<path d="M4560 8037 c0 -3 33 -28 74 -56 41 -28 95 -74 121 -103 37 -41 44
-46 32 -22 -18 34 -71 86 -137 131 -50 34 -90 56 -90 50z"/>
<path d="M5287 8017 c-8 -12 -52 -59 -98 -105 -46 -45 -79 -82 -74 -82 5 0 0
-7 -11 -16 -33 -27 119 57 161 89 85 65 72 61 -44 -15 -87 -57 -114 -63 -48
-12 39 31 107 109 131 152 12 21 -1 13 -17 -11z"/>
<path d="M4557 7971 c82 -43 128 -76 192 -135 43 -40 44 -40 15 -5 -16 19 -48
51 -71 70 -43 34 -179 109 -198 109 -5 0 23 -18 62 -39z"/>
<path d="M4959 7973 c-6 -16 -12 -50 -15 -78 l-4 -50 14 60 c8 33 17 68 21 78
4 9 4 17 1 17 -4 0 -11 -12 -17 -27z"/>
<path d="M5207 7803 c-37 -14 -66 -27 -64 -30 5 -5 119 37 132 48 13 12 9 11
-68 -18z"/>
<path d="M5419 7755 c-71 -37 -165 -64 -225 -66 -34 -2 -35 -3 -9 -6 62 -10
175 24 277 82 63 36 34 30 -43 -10z"/>
<path d="M5208 7655 c45 -15 191 -32 181 -22 -5 6 -200 38 -216 36 -5 -1 11
-7 35 -14z"/>
<path d="M5159 7576 c17 -20 110 -70 118 -62 3 2 -6 10 -19 17 -12 6 -43 23
-68 37 -33 20 -41 22 -31 8z"/>
<path d="M5141 7554 c13 -14 38 -35 54 -47 23 -15 20 -9 -15 26 -24 26 -49 47
-54 47 -5 0 1 -12 15 -26z"/>
<path d="M4450 7670 c19 -5 82 -12 140 -14 97 -4 99 -4 25 3 -44 4 -107 11
-140 14 -47 5 -53 4 -25 -3z"/>
<path d="M4630 7605 c-63 -13 -100 -23 -82 -24 42 -1 184 28 197 40 5 5 7 8 5
8 -3 -1 -57 -12 -120 -24z"/>
<path d="M4793 7564 c-24 -14 -73 -37 -110 -51 -51 -18 -58 -23 -29 -18 37 6
196 79 196 90 0 10 -16 4 -57 -21z"/>
<path d="M5007 7524 c3 -27 9 -62 13 -79 6 -20 7 -9 3 35 -3 36 -9 72 -13 79
-5 8 -6 -7 -3 -35z"/>
<path d="M4832 7477 c-53 -53 -74 -91 -26 -46 27 25 88 99 82 99 -2 0 -27 -24
-56 -53z"/>
<path d="M4100 7000 c-20 -20 -26 -50 -13 -64 4 -3 12 8 17 26 6 18 19 34 29
36 16 3 17 1 7 -17 -7 -13 -7 -21 -1 -21 14 0 33 38 26 50 -10 17 -44 11 -65
-10z"/>
<path d="M5350 5175 c-60 -148 -84 -310 -60 -397 18 -65 92 -129 132 -115 7 2
-3 11 -22 19 -41 18 -74 52 -89 91 -26 68 -7 225 45 365 18 48 13 83 -6 37z"/>
<path d="M5415 4187 c-33 -13 -85 -21 -152 -25 -112 -5 -132 -22 -27 -22 73 0
192 24 220 45 31 22 12 23 -41 2z"/>
<path d="M7150 9273 c-14 -10 -36 -27 -50 -39 -14 -12 -50 -42 -80 -66 -65
-52 -97 -115 -86 -170 9 -48 116 -214 171 -265 25 -23 61 -47 79 -53 27 -9 35
-17 40 -45 9 -45 45 -72 110 -80 l53 -7 -15 -60 c-12 -48 -18 -58 -31 -52 -9
3 -27 9 -41 12 -14 2 -33 11 -42 19 -24 21 -54 8 -67 -29 -14 -40 -14 -124 0
-150 10 -18 3 -37 -42 -125 -29 -57 -56 -106 -60 -109 -4 -2 -15 18 -23 44
-16 46 -15 52 4 113 24 79 25 92 3 111 -26 23 -111 18 -129 -7 -24 -33 -15
-58 40 -120 46 -52 76 -110 76 -148 0 -5 -16 13 -36 40 -60 79 -116 116 -197
128 l-47 7 0 68 c0 88 13 121 61 160 72 57 85 115 38 173 -21 28 -71 38 -84
17 -3 -5 -19 -10 -35 -10 -49 0 -55 -65 -13 -150 l27 -55 6 76 c8 109 43 155
83 112 39 -44 26 -93 -41 -146 -45 -37 -64 -93 -60 -174 3 -72 -4 -95 -17 -50
-4 12 -43 116 -88 230 l-80 209 16 71 c20 86 22 141 4 155 -16 14 -158 13
-174 0 -33 -26 -6 -85 82 -178 50 -53 68 -82 95 -151 17 -46 38 -99 46 -117
l13 -32 -37 27 c-20 15 -67 56 -104 90 -68 65 -144 108 -171 97 -22 -8 -43
-63 -31 -82 17 -27 80 -53 150 -63 121 -17 196 -81 235 -199 12 -36 24 -70 26
-75 2 -6 -13 -17 -33 -24 -42 -15 -119 -82 -139 -120 -7 -15 -16 -42 -20 -61
-4 -19 -19 -60 -33 -90 l-26 -54 -49 103 -49 104 45 39 c84 71 112 179 51 194
-42 11 -75 -35 -106 -149 l-13 -48 -51 93 c-34 62 -59 123 -73 182 -12 49 -28
101 -37 117 -35 69 -105 73 -103 6 0 -33 23 -71 112 -189 54 -71 124 -193 105
-182 -7 4 -28 18 -45 31 -46 33 -105 53 -126 41 -26 -14 -21 -33 18 -67 40
-35 89 -58 156 -72 46 -10 46 -10 93 -107 l47 -97 -26 -3 c-16 -2 -44 8 -73
26 -55 35 -117 56 -137 48 -22 -8 -18 -50 8 -74 22 -21 96 -56 103 -49 2 2
-20 19 -49 38 -88 58 -72 93 21 44 78 -40 77 -38 47 -81 -26 -37 -27 -44 -23
-129 4 -71 10 -101 31 -141 45 -88 129 -142 239 -151 32 -3 62 -11 66 -17 37
-58 252 -721 252 -777 0 -11 -72 -4 -98 10 -8 4 -33 52 -56 107 -23 54 -61
131 -84 170 l-42 72 20 58 c21 59 25 94 13 94 -21 -1 -35 -21 -40 -59 -3 -22
-9 -41 -13 -41 -5 0 -25 23 -45 50 l-37 51 21 49 c26 61 28 93 4 88 -11 -2
-24 -21 -33 -46 -8 -23 -17 -42 -21 -42 -4 0 -25 24 -48 54 -40 54 -41 55 -31
107 6 29 8 61 4 71 -10 33 -33 20 -45 -27 -11 -44 -12 -45 -30 -29 -15 14 -19
31 -19 85 0 40 -5 71 -12 75 -14 9 -38 -23 -38 -53 0 -35 -15 -28 -55 27 -42
57 -121 130 -141 130 -8 0 -14 -9 -14 -20 0 -13 33 -46 96 -96 52 -42 94 -78
92 -80 -3 -2 -20 1 -39 6 -44 13 -49 13 -49 -4 0 -9 22 -18 65 -26 58 -11 69
-17 97 -53 l32 -40 -29 7 c-71 16 -105 18 -105 8 0 -18 35 -32 100 -39 60 -6
60 -6 105 -66 25 -33 44 -62 42 -63 -2 -2 -21 3 -42 11 -46 16 -105 19 -105 5
0 -17 58 -40 119 -46 59 -7 60 -7 97 -62 27 -41 32 -53 18 -47 -62 25 -106 36
-120 31 -26 -10 0 -32 54 -46 113 -29 109 -26 156 -113 49 -91 119 -247 109
-247 -3 0 -44 32 -90 71 -73 61 -84 75 -79 95 11 44 -38 124 -61 101 -3 -4 1
-27 9 -52 9 -25 13 -45 11 -45 -3 0 -35 21 -73 48 -61 42 -71 53 -90 105 -16
43 -26 57 -41 57 -23 0 -24 -11 -3 -52 9 -16 12 -29 7 -27 -5 2 -33 13 -62 24
-42 15 -63 31 -90 68 -34 45 -61 61 -61 34 0 -7 8 -23 17 -37 13 -18 13 -22 2
-18 -66 25 -160 50 -166 45 -12 -13 11 -26 72 -41 128 -31 126 -30 65 -36 -30
-3 -54 -9 -53 -15 4 -14 76 -18 119 -6 31 8 46 6 101 -16 35 -14 62 -27 60
-29 -2 -3 -31 -8 -63 -12 -87 -11 -64 -28 33 -24 82 3 83 2 142 -38 75 -50 82
-60 33 -49 -44 10 -124 1 -119 -14 6 -19 60 -28 132 -23 l70 5 60 -54 c33 -30
58 -55 55 -55 -3 0 -68 7 -145 15 -165 17 -326 20 -342 4 -7 -7 -7 -23 0 -51
10 -38 3 -139 -20 -301 -5 -33 -2 -39 16 -44 20 -5 20 -9 14 -127 -7 -146 9
-326 42 -482 26 -125 48 -192 106 -329 54 -127 72 -212 67 -316 -4 -88 -7 -96
-76 -219 -51 -91 -76 -198 -76 -325 -1 -85 3 -118 17 -144 11 -22 17 -57 17
-102 0 -76 12 -112 45 -133 13 -8 85 -27 161 -41 77 -15 195 -37 263 -50 69
-13 129 -22 133 -19 4 3 8 39 8 80 0 41 4 74 10 74 5 0 71 -31 147 -69 343
-172 503 -210 841 -198 230 8 341 37 474 124 110 72 168 153 168 235 0 53 -20
87 -97 167 -94 97 -154 119 -443 161 -201 29 -432 213 -544 431 -57 112 -71
205 -63 419 10 246 76 626 167 964 22 82 38 152 35 155 -3 3 -65 4 -137 2
-101 -2 -133 0 -139 11 -5 7 -9 41 -9 75 l0 61 56 45 c36 28 63 43 75 40 14
-4 16 -9 9 -23 -16 -29 13 -46 54 -32 18 7 34 12 37 12 2 0 4 -19 4 -42 0 -57
24 -61 91 -15 l50 33 0 -70 c-1 -65 1 -71 21 -74 15 -2 26 6 39 27 10 17 21
31 24 31 3 0 12 -16 19 -36 19 -53 46 -77 71 -64 11 6 20 20 20 30 0 27 7 25
37 -10 39 -46 73 -37 73 21 0 24 2 24 45 -5 46 -32 68 -25 59 18 -3 17 -13 43
-20 58 -21 40 -18 40 33 8 26 -17 58 -30 71 -30 23 0 24 3 19 35 -5 30 -3 35
14 35 35 0 24 51 -23 106 -24 27 -50 54 -58 61 -12 10 2 12 73 13 84 0 88 1
85 21 -3 21 -29 40 -83 60 l-30 12 63 19 c99 30 82 58 -49 79 -71 12 -72 13
-48 28 38 25 79 68 79 84 0 21 -30 26 -90 15 -29 -5 -54 -8 -56 -6 -2 2 8 21
21 41 46 67 24 90 -48 51 -26 -13 -48 -24 -50 -24 -2 0 1 23 7 50 14 70 0 83
-54 52 l-40 -23 0 25 c0 37 -18 76 -34 76 -17 0 -86 -78 -86 -97 0 -27 -16
-12 -34 33 -23 57 -62 104 -86 104 -19 0 -40 -45 -40 -86 0 -13 -3 -24 -8 -24
-4 0 -30 20 -57 44 l-50 45 52 52 52 53 74 -19 c71 -18 77 -18 101 -2 49 33
25 67 -48 70 -25 1 -46 5 -46 9 0 15 60 48 87 48 15 0 52 -11 81 -25 66 -30
83 -31 108 -4 14 15 16 24 8 37 -9 13 -7 19 10 27 13 7 21 20 21 35 0 23 -5
25 -49 30 -56 6 -55 8 32 59 63 37 69 37 149 9 51 -18 67 -19 88 -10 36 17 33
48 -7 61 -18 5 -44 11 -58 13 -21 3 -16 8 37 36 34 18 67 32 73 32 7 0 37 -18
67 -40 61 -44 83 -49 104 -24 17 21 39 85 33 96 -3 4 -26 8 -52 9 -83 1 -10
20 101 26 105 6 127 16 127 58 0 46 -60 39 -160 -19 -56 -32 -65 -33 -45 -2 9
14 15 37 13 53 -2 22 -8 28 -28 28 -21 0 -26 -6 -33 -40 -16 -75 -25 -84 -132
-126 -55 -22 -106 -43 -113 -46 -7 -3 -2 11 12 32 30 43 33 67 11 85 -12 10
-21 10 -41 1 -24 -11 -25 -15 -19 -60 6 -42 3 -52 -17 -74 -21 -23 -229 -150
-235 -143 -1 1 3 16 9 33 16 43 -2 86 -35 81 -19 -3 -24 -12 -33 -69 -11 -65
-31 -105 -74 -144 l-22 -20 7 38 c8 43 -6 67 -40 67 -45 0 -50 25 -15 82 18
29 34 55 37 58 2 2 39 3 81 1 67 -2 80 0 96 18 45 50 -38 73 -128 35 -23 -9
-22 -7 107 169 60 82 84 107 101 107 13 0 51 -15 86 -32 l62 -33 24 30 c46 57
24 77 -86 79 -58 1 -77 4 -66 11 9 7 47 7 115 1 91 -8 103 -7 121 9 25 23 26
51 2 64 -21 11 -118 0 -165 -18 -16 -6 -31 -11 -33 -11 -14 0 113 131 196 203
127 110 140 126 137 162 -1 22 -9 32 -30 39 -38 14 -59 -11 -81 -95 -15 -57
-25 -74 -72 -120 l-56 -54 7 45 c12 83 -33 133 -69 77 -14 -20 -13 -29 5 -89
l21 -68 -100 -119 c-55 -66 -109 -133 -120 -148 l-21 -28 -1 43 c0 76 -30 102
-70 62 -19 -19 -19 -20 5 -75 26 -58 32 -95 15 -95 -5 0 -10 11 -10 25 0 40
-49 125 -71 125 -14 0 -40 -60 -33 -73 4 -7 25 -33 46 -58 21 -25 38 -51 38
-58 0 -13 -122 -210 -130 -210 -3 -1 -14 23 -25 52 -18 45 -23 52 -48 52 -24
-1 -27 3 -27 33 0 46 -78 220 -106 239 -13 8 -41 17 -64 20 -35 5 -40 9 -40
32 0 31 25 193 42 269 11 52 12 54 41 48 16 -3 48 -1 72 5 37 9 48 8 83 -10
54 -28 71 -27 166 11 80 31 105 46 199 112 64 45 72 58 97 154 18 74 19 85 6
117 -8 19 -32 47 -54 62 -22 15 -45 43 -51 60 -13 36 -166 180 -223 209 -51
27 -159 25 -231 -5 -56 -24 -58 -24 -105 -8 -66 23 -165 47 -194 47 -13 0 -35
-8 -48 -17z m166 -33 c104 -24 151 -56 185 -122 23 -45 36 -137 24 -165 -5
-10 -7 -26 -6 -35 1 -10 -3 -26 -9 -38 -6 -11 -8 -20 -6 -20 14 0 35 64 41
126 6 60 4 78 -15 123 l-23 52 22 30 c13 17 20 33 17 36 -3 3 -13 -8 -23 -26
-21 -36 -24 -37 -48 -11 -18 19 -17 20 21 36 53 23 162 30 209 14 47 -15 220
-179 229 -216 9 -33 -22 -99 -68 -146 -41 -43 -38 -42 -91 -23 -77 28 -222 16
-266 -22 -11 -9 -29 -12 -57 -7 -34 5 -41 10 -46 35 -5 27 -80 109 -98 109
-16 0 -7 -21 11 -28 32 -11 98 -112 75 -112 -11 0 -49 54 -46 66 1 7 -3 16 -9
20 -16 9 -30 -17 -17 -33 8 -10 7 -13 -3 -14 -8 0 1 -7 19 -15 68 -30 18 -24
-98 11 -41 12 -108 28 -147 35 -95 15 -133 47 -133 110 0 58 25 94 120 173 77
65 114 87 135 82 6 -2 51 -13 101 -25z m708 -310 c19 -31 19 -35 2 -106 -10
-41 -19 -74 -20 -74 -2 0 -32 15 -67 33 -35 19 -71 36 -79 39 -11 4 -4 16 28
51 23 26 50 63 59 82 15 32 18 34 37 21 12 -7 30 -28 40 -46z m-1521 -41 c34
-16 46 -40 53 -116 l6 -68 -51 49 c-99 97 -104 179 -8 135z m85 -42 c2 -33 0
-47 -7 -42 -6 3 -11 14 -11 24 0 10 -10 31 -21 45 l-22 28 29 -4 c27 -3 29 -6
32 -51z m532 24 c47 -11 105 -27 130 -36 25 -9 84 -20 132 -25 86 -8 172 -41
173 -65 0 -5 -27 -20 -60 -32 -47 -17 -83 -22 -168 -22 -111 -1 -159 10 -201
47 -25 22 -106 131 -106 143 0 12 1 12 100 -10z m706 -62 c110 -47 157 -75
151 -93 -2 -6 -30 -14 -62 -18 -35 -5 -79 -20 -113 -39 -38 -21 -78 -34 -124
-40 -38 -5 -98 -21 -135 -35 -62 -25 -71 -26 -127 -16 -34 6 -77 14 -97 17
-36 5 -61 25 -72 56 -7 20 34 29 130 29 42 0 84 8 129 25 36 14 79 25 95 25
32 0 39 14 12 24 -15 6 -15 8 -3 16 16 10 15 11 -20 28 l-25 13 25 -6 c14 -4
33 -9 43 -12 9 -3 17 -1 17 5 0 6 -15 14 -34 18 -25 4 -33 10 -29 21 5 13 0
14 -28 8 -19 -4 -31 -4 -27 0 11 11 101 24 149 20 25 -2 90 -23 145 -46z
m-251 -39 c3 -6 -1 -7 -9 -4 -18 7 -21 14 -7 14 6 0 13 -4 16 -10z m779 -86
c27 -11 18 -38 -30 -84 -25 -25 -43 -38 -40 -30 2 8 12 39 21 68 17 53 21 57
49 46z m-459 -34 c-11 -12 -48 -35 -83 -51 -60 -29 -81 -32 -68 -11 8 13 105
68 131 75 36 9 38 7 20 -13z m-1457 -59 c59 -43 59 -52 0 -34 -69 20 -88 30
-88 48 0 25 44 17 88 -14z m328 3 c-3 -9 -6 -32 -6 -52 0 -28 -3 -33 -10 -22
-5 8 -10 32 -10 53 0 27 4 37 16 37 11 0 14 -5 10 -16z m-328 -59 c40 -11 42
-13 17 -14 -35 -1 -104 29 -124 53 -12 14 -7 13 22 -4 21 -12 59 -28 85 -35z
m1292 47 c0 -14 -58 -42 -87 -42 -36 1 -85 26 -63 33 8 3 22 8 30 10 25 9 120
8 120 -1z m404 -38 c9 -23 7 -72 -2 -78 -12 -7 -43 61 -36 79 8 20 30 19 38
-1z m-1968 -29 c9 -13 27 -60 40 -102 l23 -78 -30 35 c-85 97 -114 170 -69
170 11 0 27 -11 36 -25z m1104 -115 c0 -31 -61 -122 -68 -101 -8 25 4 129 18
145 12 15 14 15 31 0 11 -10 19 -29 19 -44z m54 14 c22 -22 21 -28 -19 -63
-43 -37 -53 -39 -31 -6 9 13 16 38 16 55 0 33 11 38 34 14z m4 -148 c-8 -40
-19 -72 -28 -77 -8 -4 -32 -15 -52 -25 -21 -9 -59 -35 -85 -58 l-48 -41 23 35
c13 19 37 63 52 97 23 47 43 72 87 106 32 25 59 42 61 38 1 -3 -4 -37 -10 -75z
m-335 -10 l6 -58 -25 33 c-28 39 -31 64 -7 78 10 5 18 9 19 8 1 -1 4 -28 7
-61z m72 44 c6 -19 -11 -97 -25 -113 -11 -13 -33 79 -26 108 8 30 42 34 51 5z
m1173 -7 c-3 -15 -13 -18 -58 -16 -74 4 -96 15 -45 23 79 14 107 12 103 -7z
m-1755 -7 c11 -27 -13 -81 -57 -131 -24 -28 -46 -48 -49 -45 -7 7 35 132 56
163 19 29 42 35 50 13z m1646 -62 c34 -7 44 -40 16 -51 -18 -6 -106 37 -99 49
6 10 40 10 83 2z m-283 -28 c3 -8 4 -30 2 -51 l-3 -36 -19 35 c-18 35 -17 66
4 66 6 0 13 -6 16 -14z m-1588 -47 c40 -28 72 -52 72 -54 0 -8 -113 35 -145
55 -42 26 -53 50 -22 50 13 0 55 -23 95 -51z m653 10 c37 -18 109 -85 109 -99
0 -12 -122 34 -191 73 -39 22 -79 37 -99 37 -40 0 -34 10 12 19 42 9 121 -5
169 -30z m522 -11 c10 -5 35 -44 55 -86 65 -136 46 -235 -56 -301 -48 -31
-151 -61 -209 -61 -40 0 -43 17 -5 26 103 23 154 43 219 87 40 26 73 53 73 59
0 6 -10 3 -22 -6 -113 -83 -166 -107 -284 -131 -26 -5 -32 -2 -42 19 -12 26
-67 48 -100 39 -10 -2 -24 3 -31 11 -17 20 -50 21 -57 1 -4 -10 -15 -12 -35
-8 -21 4 -34 1 -42 -10 -7 -8 -21 -17 -32 -19 -13 -2 -21 -12 -23 -31 -3 -25
-32 -41 -32 -17 0 6 -5 10 -11 10 -22 0 -115 52 -147 83 -59 56 -87 114 -87
182 0 47 5 67 24 94 43 60 125 78 191 42 62 -34 134 -68 185 -88 76 -29 96
-73 81 -183 -10 -71 5 -56 28 28 29 111 72 176 159 242 45 33 151 43 200 18z
m337 -28 c11 -21 20 -45 20 -52 -1 -19 -59 54 -60 75 0 29 19 19 40 -23z m710
-32 c0 -17 -18 -44 -24 -37 -8 7 5 49 15 49 5 0 9 -6 9 -12z m190 -36 c0 -20
-28 -32 -74 -31 l-51 1 40 19 c41 19 85 25 85 11z m-460 -66 c0 -7 -6 -21 -14
-32 -14 -18 -15 -18 -22 10 -4 19 -2 31 7 36 16 10 29 4 29 -14z m-1671 -112
c-19 -21 -49 -33 -49 -20 0 2 9 26 21 53 l21 48 15 -28 c14 -27 13 -31 -8 -53z
m1945 66 c-6 -6 -26 -6 -54 -1 l-45 9 55 1 c35 1 51 -2 44 -9z m-36 -31 c12
-5 22 -13 22 -19 0 -18 -30 -11 -68 16 -37 25 -37 25 -7 18 17 -4 40 -11 53
-15z m-549 -5 c-11 -11 -30 -14 -65 -12 -46 3 -47 4 -24 15 14 7 43 12 65 12
36 1 38 0 24 -15z m-1211 -162 c-10 -5 -96 42 -133 72 -29 23 -29 25 -12 44
18 20 19 19 85 -47 37 -36 64 -67 60 -69z m926 104 c25 -52 19 -64 -14 -30
-21 20 -29 36 -24 47 9 25 20 21 38 -17z m-34 -48 c0 -5 -13 -8 -30 -8 -34 0
-34 0 -18 35 l12 26 18 -23 c10 -13 18 -26 18 -30z m670 30 c22 -8 23 -10 8
-19 -20 -11 -118 17 -118 33 0 11 68 2 110 -14z m-1729 -28 c110 -70 166 -92
241 -98 48 -3 68 -9 68 -18 0 -8 9 -19 20 -26 11 -7 20 -19 20 -26 0 -22 -54
-94 -114 -150 -52 -50 -58 -53 -93 -46 -73 13 -126 53 -150 113 -26 68 -36 80
-94 125 -56 44 -59 48 -59 90 0 87 58 100 161 36z m1366 -7 c-4 -20 -12 -41
-18 -47 -9 -8 -10 -5 -5 14 3 14 6 35 6 48 0 12 5 22 11 22 8 0 10 -13 6 -37z
m-872 -3 c3 -5 -1 -10 -9 -10 -9 0 -16 5 -16 10 0 6 4 10 9 10 6 0 13 -4 16
-10z m-60 -20 c3 -5 -1 -10 -9 -10 -8 0 -18 5 -21 10 -3 6 1 10 9 10 8 0 18
-4 21 -10z m135 0 c0 -5 -4 -10 -10 -10 -5 0 -10 5 -10 10 0 6 5 10 10 10 6 0
10 -4 10 -10z m50 -21 c0 -5 -7 -9 -15 -9 -15 0 -20 12 -9 23 8 8 24 -1 24
-14z m498 0 c15 -10 22 -24 22 -46 0 -35 -23 -58 -95 -93 -25 -12 -67 -47 -95
-79 -27 -32 -63 -64 -80 -71 -71 -29 -198 10 -293 91 -41 35 -45 42 -34 60 6
10 22 19 34 19 12 0 29 10 38 23 13 19 25 22 83 24 116 3 175 11 247 37 39 13
63 25 54 25 -9 1 -42 -8 -74 -19 -79 -27 -80 -25 -10 15 54 32 66 35 121 31
33 -2 70 -10 82 -17z m-738 -14 c0 -8 -9 -15 -20 -15 -11 0 -20 7 -20 15 0 8
9 15 20 15 11 0 20 -7 20 -15z m110 6 c0 -12 -28 -22 -34 -12 -3 5 -3 11 1 15
9 9 33 7 33 -3z m-60 -21 c0 -5 -4 -10 -9 -10 -6 0 -13 5 -16 10 -3 6 1 10 9
10 9 0 16 -4 16 -10z m106 -17 c-10 -10 -19 5 -10 18 6 11 8 11 12 0 2 -7 1
-15 -2 -18z m104 2 c0 -8 -9 -15 -20 -15 -20 0 -26 11 -13 23 12 13 33 7 33
-8z m-155 -5 c-3 -5 -12 -10 -18 -10 -7 0 -6 4 3 10 19 12 23 12 15 0z m725
-18 c0 -16 -7 -37 -15 -48 -13 -18 -14 -15 -15 29 0 35 4 47 15 47 10 0 15
-10 15 -28z m290 18 c0 -13 -50 -13 -70 0 -11 7 -4 10 28 10 23 0 42 -4 42
-10z m-1140 -8 c0 -13 -12 -22 -22 -16 -10 6 -1 24 13 24 5 0 9 -4 9 -8z
m-400 -135 c36 -71 53 -92 95 -119 l30 -20 -40 7 c-107 18 -214 134 -215 232
l0 33 49 -35 c35 -25 58 -53 81 -98z m477 117 c-3 -3 -12 -4 -19 -1 -8 3 -5 6
6 6 11 1 17 -2 13 -5z m53 -8 c0 -3 -4 -8 -10 -11 -5 -3 -10 -1 -10 4 0 6 5
11 10 11 6 0 10 -2 10 -4z m110 0 c0 -11 -19 -15 -25 -6 -3 5 1 10 9 10 9 0
16 -2 16 -4z m-203 -22 c-3 -3 -12 -4 -19 -1 -8 3 -5 6 6 6 11 1 17 -2 13 -5z
m139 -9 c-25 -19 -36 -19 -36 0 0 10 10 15 28 15 26 -1 26 -1 8 -15z m613 -15
c-6 -16 -29 -47 -51 -69 -40 -41 -138 -96 -158 -89 -18 6 81 108 129 133 26
13 53 31 60 39 21 25 31 19 20 -14z m314 11 c22 -22 -23 -22 -75 -2 l-53 22
59 -5 c32 -3 63 -9 69 -15z m-1000 2 c-7 -2 -19 -2 -25 0 -7 3 -2 5 12 5 14 0
19 -2 13 -5z m81 -80 c47 -53 118 -96 199 -123 33 -10 38 -16 35 -38 -3 -27
-3 -27 -88 -26 -47 1 -112 3 -145 4 -48 3 -76 -3 -140 -28 -89 -35 -158 -41
-193 -16 -43 30 -23 80 64 164 61 59 61 56 4 -30 -38 -57 -55 -100 -39 -100 5
0 9 8 9 19 0 10 15 38 33 62 42 55 68 105 72 137 4 35 22 42 85 35 51 -5 59
-10 104 -60z m745 -9 c10 -3 11 -8 4 -15 -13 -13 -133 -2 -133 11 0 16 83 19
129 4z m-279 -104 c-26 -36 -47 -51 -31 -22 12 22 39 52 47 52 3 0 -4 -13 -16
-30z m-73 -75 c-17 -45 -29 -61 -45 -63 -12 -2 -22 -10 -22 -18 0 -8 -7 -14
-15 -14 -8 0 -15 2 -15 4 0 19 85 155 98 158 25 5 25 -1 -1 -67z m-47 48 c0
-11 -119 -226 -132 -238 -7 -7 -9 14 -6 62 3 59 8 77 28 98 13 14 25 38 26 53
1 15 3 28 3 30 2 6 81 1 81 -5z m350 -83 c39 -77 39 -80 29 -137 -6 -32 -9
-72 -6 -89 5 -28 2 -33 -19 -38 -17 -5 -34 0 -54 14 -46 33 -141 149 -166 205
-23 47 -32 105 -17 105 3 0 31 -19 61 -42 56 -44 72 -69 93 -151 11 -45 65
-134 75 -124 2 2 -9 33 -26 68 -36 78 -54 166 -45 223 13 77 21 73 75 -34z
m156 4 c9 -47 -8 -121 -48 -207 -22 -47 -36 -67 -47 -65 -24 5 -18 128 9 200
21 57 54 108 70 108 5 0 12 -16 16 -36z m-751 7 c70 -10 44 -18 -125 -35 -80
-9 -163 -18 -185 -21 -25 -3 -3 7 60 29 103 36 153 41 250 27z m364 -83 c1 -4
-12 1 -29 10 -33 19 -35 24 -18 55 11 21 12 20 29 -18 10 -22 18 -43 18 -47z
m491 35 c-1 -45 -35 -104 -105 -178 l-66 -70 35 58 c19 32 40 81 46 110 8 37
21 60 43 80 17 15 35 27 39 27 4 0 8 -12 8 -27z m-780 -98 c0 -103 -1 -109
-46 -218 -25 -62 -54 -128 -64 -147 l-18 -35 -8 40 c-30 158 -81 441 -79 443
3 3 142 18 188 21 l27 1 0 -105z m-385 70 c44 0 94 3 111 7 l32 7 30 -157 c17
-86 38 -206 48 -265 l17 -109 -23 -91 c-13 -51 -24 -93 -24 -94 -1 -1 -24 4
-51 11 l-50 12 -42 160 c-33 127 -127 415 -168 518 -7 16 -5 17 16 10 13 -5
60 -9 104 -9z m684 -46 c13 -11 21 -19 18 -19 -16 0 -137 61 -137 69 0 12 85
-24 119 -50z m-165 -18 c9 -7 16 -24 16 -37 0 -19 -7 -24 -35 -30 -40 -7 -45
-26 -12 -49 19 -13 20 -17 7 -25 -46 -28 -46 -29 -22 -50 l24 -19 -18 -156
c-17 -148 -26 -187 -39 -173 -9 8 -27 417 -19 442 3 11 20 49 37 84 24 50 33
59 38 45 4 -10 14 -25 23 -32z m118 4 c117 -47 229 -140 233 -194 2 -17 15
-44 29 -62 l27 -31 -73 -46 c-89 -56 -173 -92 -213 -91 l-30 0 47 44 c32 28
79 56 138 81 50 20 89 39 87 41 -2 2 -46 -8 -98 -22 -52 -14 -128 -28 -169
-31 l-75 -6 63 37 c53 31 75 37 140 42 115 8 114 18 -2 19 -143 1 -275 28
-252 51 10 11 281 10 326 0 19 -5 -15 16 -75 47 -68 34 -131 74 -165 106 -52
47 -53 50 -25 44 17 -4 56 -17 87 -29z m621 8 c-45 -74 -199 -201 -229 -189
-13 5 -13 10 5 35 44 61 194 180 229 181 9 0 8 -8 -5 -27z m-649 -81 c3 -5 -8
-6 -25 -4 -28 4 -36 12 -23 25 7 7 40 -8 48 -21z m761 9 c8 -14 -61 -67 -131
-102 -62 -31 -182 -64 -193 -53 -16 15 167 131 238 150 57 16 78 17 86 5z
m-742 -45 c86 -20 82 -29 -9 -24 -53 3 -89 10 -105 21 l-23 17 39 0 c22 0 66
-6 98 -14z m347 -67 c21 -12 43 -32 49 -46 15 -32 14 -80 -1 -86 -53 -18 -161
98 -128 138 17 20 35 19 80 -6z m-575 -247 l8 -163 -39 -40 c-50 -52 -79 -52
-87 -1 -24 153 -24 150 39 307 l59 145 6 -42 c4 -24 10 -116 14 -206z m1048
208 c29 -27 -187 -46 -288 -26 l-40 8 55 17 c30 10 63 22 73 28 19 10 184 -12
200 -27z m-843 -19 c23 -6 22 -8 -23 -30 -52 -25 -66 -43 -49 -64 6 -7 9 -23
5 -35 -5 -22 5 -27 50 -24 9 1 17 -2 17 -6 0 -12 -43 -57 -84 -87 l-39 -28 6
39 c3 21 11 85 18 142 l12 102 31 -1 c17 -1 42 -4 56 -8z m627 -37 c91 -14
197 -47 208 -65 4 -5 -35 -9 -97 -9 -83 0 -116 5 -171 24 -72 26 -117 51 -117
65 0 10 35 7 177 -15z m-30 -79 c61 -16 123 -66 165 -133 24 -38 20 -46 -16
-36 -59 14 -286 186 -286 215 0 5 18 0 40 -11 22 -11 65 -27 97 -35z m-227 30
c17 -9 40 -13 53 -10 21 6 31 -5 90 -92 62 -93 131 -222 123 -231 -9 -8 -46
20 -85 64 -52 59 -100 142 -117 202 -12 44 -12 41 -7 -53 7 -113 7 -100 5
-182 -2 -77 -19 -82 -51 -16 -31 65 -41 204 -18 262 9 23 15 41 12 41 -2 0
-20 -24 -39 -52 -46 -70 -63 -88 -120 -131 -73 -57 -107 -46 -71 22 12 24 181
191 193 191 1 0 16 -7 32 -15z m-311 -20 c-20 -20 -69 -34 -93 -25 -27 9 -4
23 54 31 25 3 47 7 50 8 2 0 -3 -6 -11 -14z m106 -85 c-30 -31 -82 -60 -109
-60 -34 0 8 38 68 63 34 14 63 26 65 26 3 1 -8 -12 -24 -29z m415 -25 c7 -8
36 -28 64 -44 54 -31 103 -77 94 -87 -15 -14 -134 68 -167 115 -22 31 -15 44
9 16z m-268 -153 c-27 -52 -42 -52 -42 0 1 60 15 116 37 140 18 20 18 19 21
-42 2 -45 -2 -71 -16 -98z m188 41 c32 -51 48 -109 33 -124 -5 -5 -21 4 -40
23 -26 28 -32 42 -35 91 -1 31 0 57 5 57 4 0 21 -21 37 -47z m-851 -37 c7 -50
6 -56 -10 -56 -10 0 -21 5 -24 10 -7 11 15 113 23 106 2 -2 7 -29 11 -60z
m220 -53 c1 -38 -14 -44 -23 -10 -8 31 -7 82 2 91 8 9 19 -33 21 -81z m-829
67 c138 -13 309 -42 443 -76 212 -53 422 -80 554 -69 l81 7 -10 -42 c-15 -59
-32 -63 -233 -55 -363 13 -651 42 -888 90 -195 40 -181 33 -187 94 -3 28 -4
54 -1 57 8 7 121 4 241 -6z m779 -94 c-2 -2 -19 -1 -37 1 l-33 5 28 30 28 29
9 -30 c5 -17 7 -33 5 -35z m-689 -95 c223 -36 410 -52 683 -58 l267 -6 0 -22
c0 -13 -7 -26 -16 -29 -9 -3 -149 -6 -313 -6 -285 0 -475 9 -646 31 -86 11
-282 55 -303 68 -9 5 -11 20 -6 48 l6 40 102 -23 c55 -13 157 -32 226 -43z
m-248 -65 c182 -52 476 -77 893 -76 l290 2 -3 -24 c-2 -13 -7 -27 -12 -32 -15
-15 -221 -18 -520 -7 -316 12 -467 23 -644 50 l-111 16 4 40 c3 39 8 55 16 55
3 0 42 -11 87 -24z m-4 -202 c12 -334 20 -408 51 -489 40 -104 99 -193 186
-281 88 -89 235 -199 235 -176 0 6 -28 30 -62 54 -93 62 -238 211 -286 293
-79 135 -88 183 -105 568 -4 84 -2 97 12 97 9 0 79 -7 156 -15 189 -20 526
-35 773 -35 l202 0 -5 -22 c-77 -340 -115 -616 -115 -838 0 -223 35 -335 151
-490 127 -168 322 -296 491 -321 260 -38 320 -57 392 -120 25 -23 44 -45 41
-49 -3 -5 -43 -34 -88 -63 -199 -132 -247 -147 -474 -154 -184 -6 -240 -23
-75 -23 146 0 273 17 348 45 69 26 193 97 255 146 76 60 95 24 22 -41 -109
-96 -207 -146 -348 -178 -103 -23 -411 -23 -525 1 -198 42 -337 97 -515 204
-177 106 -403 181 -697 228 -29 4 -36 9 -31 22 5 14 19 15 102 9 53 -4 125
-14 161 -22 125 -29 306 -95 395 -145 230 -127 381 -189 463 -189 55 0 48 12
-11 17 -89 9 -226 66 -432 183 -148 84 -378 155 -553 172 l-122 11 6 36 c10
57 52 161 85 213 43 67 59 128 59 227 0 101 -21 187 -79 320 -73 169 -113 336
-132 551 -10 120 -6 310 6 331 3 4 17 4 33 0 26 -7 27 -10 30 -77z m117 -1719
c234 -42 442 -116 588 -209 138 -88 316 -160 490 -198 88 -19 132 -22 312 -22
183 1 220 4 290 22 112 31 228 90 313 161 39 34 74 61 77 61 3 0 5 -17 5 -38
0 -78 -97 -183 -225 -243 -103 -49 -205 -70 -365 -76 -219 -8 -369 9 -515 58
-132 45 -317 130 -465 214 -138 78 -266 116 -509 150 -63 8 -116 16 -117 18
-1 1 -4 30 -8 65 -7 62 -7 63 16 58 13 -3 64 -13 113 -21z m140 -186 c55 -11
143 -34 195 -52 l95 -32 3 -78 c2 -42 0 -77 -4 -77 -17 0 -444 82 -472 91 -43
14 -52 34 -52 115 l0 67 68 -7 c37 -4 112 -16 167 -27z"/>
<path d="M7584 9169 c-21 -23 -23 -29 -9 -21 25 13 62 52 48 52 -5 0 -22 -14
-39 -31z"/>
<path d="M7377 9143 c9 -21 19 -63 23 -93 l7 -55 1 50 c1 30 -6 67 -18 93 -24
52 -35 56 -13 5z"/>
<path d="M7630 9134 c-25 -26 -39 -44 -32 -40 6 4 12 3 12 -1 0 -5 -6 -15 -12
-23 -15 -16 34 19 77 55 39 32 22 33 -21 0 -48 -37 -49 -30 -1 15 23 22 37 40
32 40 -6 0 -31 -21 -55 -46z"/>
<path d="M7480 9052 c0 -29 4 -52 9 -52 8 0 4 90 -5 99 -2 2 -4 -19 -4 -47z"/>
<path d="M7066 9080 c15 -30 76 -99 102 -116 20 -13 24 -14 15 -2 -7 8 -10 17
-7 21 3 3 -10 29 -30 59 -20 29 -36 48 -36 42 0 -6 14 -30 30 -52 41 -57 29
-53 -31 11 -28 28 -47 45 -43 37z"/>
<path d="M7820 8992 c-25 -15 -74 -37 -110 -50 -36 -12 -51 -20 -35 -18 50 8
138 44 170 71 39 32 31 31 -25 -3z"/>
<path d="M6990 8997 c0 -7 89 -67 114 -77 41 -15 31 -5 -40 39 -62 39 -74 45
-74 38z"/>
<path d="M7448 8910 c-4 -58 8 -53 18 8 4 26 3 42 -4 42 -5 0 -12 -22 -14 -50z"/>
<path d="M7411 8915 c0 -16 4 -37 9 -45 8 -12 10 -11 9 5 -1 11 -5 31 -9 45
-8 24 -8 24 -9 -5z"/>
<path d="M7480 8893 c0 -28 3 -34 10 -23 13 20 13 47 0 55 -6 4 -10 -9 -10
-32z"/>
<path d="M7785 8900 c-27 -10 -43 -19 -34 -19 20 -1 81 19 94 30 14 13 -3 10
-60 -11z"/>
<path d="M7540 8884 c0 -9 7 -14 17 -12 25 5 28 28 4 28 -12 0 -21 -6 -21 -16z"/>
<path d="M7270 8880 c0 -5 7 -10 16 -10 8 0 12 5 9 10 -3 6 -10 10 -16 10 -5
0 -9 -4 -9 -10z"/>
<path d="M7920 8840 c-22 -7 -20 -8 15 -9 22 0 47 4 55 9 11 7 8 9 -15 9 -16
-1 -41 -5 -55 -9z"/>
<path d="M7110 8832 c0 -23 27 -76 49 -96 21 -19 21 -19 21 6 0 14 -3 41 -7
59 l-7 34 -6 -35 -6 -35 -21 40 c-12 22 -22 34 -23 27z"/>
<path d="M7325 8740 c-46 -47 -34 -55 13 -9 27 27 40 49 29 49 -2 0 -21 -18
-42 -40z"/>
<path d="M7755 8804 c38 -13 74 -23 80 -21 15 5 -102 47 -128 46 -12 0 9 -11
48 -25z"/>
<path d="M7706 8782 c20 -18 114 -82 120 -82 14 0 -23 35 -65 62 -42 26 -78
39 -55 20z"/>
<path d="M7700 8756 c0 -8 101 -78 106 -73 3 3 -10 16 -28 30 -37 27 -78 50
-78 43z"/>
<path d="M7540 8659 c43 -34 67 -42 30 -9 -19 16 -39 30 -45 30 -5 0 1 -9 15
-21z"/>
<path d="M6645 8015 c33 -56 86 -114 130 -146 70 -50 43 -48 -32 3 -117 77
-159 93 -55 21 57 -40 184 -108 148 -78 -11 8 -16 15 -10 15 5 0 -21 28 -57
63 -36 34 -83 82 -104 107 -25 29 -32 34 -20 15z"/>
<path d="M7312 8001 c-78 -51 -139 -107 -159 -145 -12 -24 -5 -20 31 20 25 28
82 77 128 108 93 63 93 77 0 17z"/>
<path d="M6956 8015 c3 -11 12 -45 19 -75 23 -94 24 -96 20 -43 -2 29 -13 72
-25 95 -11 24 -18 34 -14 23z"/>
<path d="M7361 7972 c-45 -22 -99 -61 -140 -100 l-66 -63 71 58 c39 32 107 77
150 100 97 52 86 56 -15 5z"/>
<path d="M6665 7821 c11 -10 114 -51 129 -51 18 0 1 8 -69 35 -38 14 -65 22
-60 16z"/>
<path d="M6445 7784 c69 -54 237 -110 305 -102 31 4 30 5 -11 6 -62 3 -138 26
-234 73 -44 22 -71 32 -60 23z"/>
<path d="M6640 7652 c-52 -9 -84 -18 -70 -20 27 -4 162 15 194 28 19 8 19 9
-4 8 -14 0 -68 -8 -120 -16z"/>
<path d="M6719 7548 c-35 -22 -53 -36 -39 -32 13 4 45 19 70 35 24 15 46 26
48 24 2 -1 -16 -22 -40 -45 -24 -23 -34 -37 -23 -31 25 13 43 29 73 63 l23 26
-24 0 c-13 0 -52 -18 -88 -40z"/>
<path d="M7469 7673 c-8 -2 -67 -8 -130 -13 l-114 -9 120 4 c66 3 134 9 150
14 30 9 7 13 -26 4z"/>
<path d="M7198 7618 c12 -12 158 -40 189 -36 16 2 -22 12 -85 24 -62 11 -109
17 -104 12z"/>
<path d="M7095 7581 c19 -19 152 -80 191 -86 30 -5 24 -1 -26 18 -36 13 -90
36 -120 51 -30 16 -50 23 -45 17z"/>
<path d="M7338 7483 c7 -3 16 -2 19 1 4 3 -2 6 -13 5 -11 0 -14 -3 -6 -6z"/>
<path d="M6927 7553 c-9 -30 -19 -138 -13 -132 7 6 27 142 21 147 -2 2 -5 -5
-8 -15z"/>
<path d="M7067 7505 c39 -50 93 -102 93 -89 0 5 -28 36 -62 69 -49 48 -55 52
-31 20z"/>
<path d="M7774 7005 c-6 -16 12 -45 28 -45 5 0 4 9 -2 20 -6 11 -7 20 -2 20
15 0 42 -35 42 -54 0 -9 5 -14 10 -11 16 10 11 40 -10 63 -24 25 -58 29 -66 7z"/>
<path d="M6545 5193 c21 -52 55 -177 65 -238 21 -129 -7 -211 -85 -250 -29
-14 -35 -20 -22 -23 9 -2 33 7 53 19 52 32 76 91 75 187 -1 104 -57 322 -83
322 -6 0 -7 -8 -3 -17z"/>
<path d="M6452 4200 c11 -34 245 -77 295 -54 12 5 -16 10 -82 15 -88 5 -127
14 -199 44 -13 6 -17 4 -14 -5z"/>
<path d="M5063 8628 c-48 -53 -36 -117 32 -174 52 -42 65 -75 65 -161 0 -40 4
-62 10 -58 12 8 13 109 1 151 -7 26 -4 42 20 90 43 89 39 154 -11 154 -16 0
-32 5 -35 10 -11 18 -61 11 -82 -12z m73 -19 c14 -16 20 -40 23 -102 l3 -81
-34 30 c-77 65 -91 110 -50 157 20 22 35 22 58 -4z m64 -43 c0 -25 -4 -48 -10
-51 -6 -4 -10 6 -10 22 0 15 -3 38 -6 51 -5 16 -2 22 10 22 12 0 16 -10 16
-44z"/>
<path d="M2227 5904 c-4 -4 -4 -11 -1 -15 3 -5 275 -9 605 -9 476 0 600 3 597
13 -4 9 -134 13 -600 15 -327 1 -597 -1 -601 -4z"/>
<path d="M8520 5890 c0 -7 248 -10 725 -10 477 0 725 3 725 10 0 7 -248 10
-725 10 -477 0 -725 -3 -725 -10z"/>
<path d="M3088 5763 c-14 -3 -18 -15 -18 -54 0 -48 -1 -49 -30 -49 -25 0 -30
-4 -30 -25 0 -21 5 -25 30 -25 l30 0 0 -115 c0 -113 1 -117 26 -140 21 -20 38
-25 75 -25 46 0 49 2 49 25 0 22 -4 25 -34 25 -57 0 -66 18 -66 131 l0 99 50
0 c47 0 50 2 50 25 0 23 -3 25 -50 25 l-50 0 0 55 c0 30 -3 54 -7 54 -5 -1
-16 -3 -25 -6z"/>
<path d="M8620 5727 c-38 -25 -75 -81 -65 -97 11 -17 43 -11 50 10 10 31 54
60 92 60 45 0 90 -32 98 -70 10 -46 -20 -84 -137 -172 -94 -70 -108 -84 -108
-109 l0 -30 148 3 c139 3 147 4 147 23 0 18 -8 20 -110 25 l-109 5 69 52 c152
112 181 176 121 268 -36 54 -139 72 -196 32z"/>
<path d="M8984 5731 c-70 -43 -99 -114 -92 -222 14 -187 182 -264 295 -136 82
93 59 297 -41 358 -41 25 -121 25 -162 0z m163 -66 c62 -71 56 -214 -13 -274
-39 -35 -78 -40 -125 -15 -81 41 -94 232 -21 297 46 42 119 38 159 -8z"/>
<path d="M9360 5732 c-34 -17 -84 -88 -74 -104 11 -18 45 -7 56 18 27 58 112
72 159 25 61 -61 34 -111 -120 -221 -82 -59 -90 -68 -91 -97 l0 -33 145 0 145
0 0 25 0 25 -111 0 -112 0 91 70 c110 85 136 123 129 186 -11 99 -122 154
-217 106z"/>
<path d="M9630 5636 c0 -102 0 -104 24 -110 18 -4 36 2 62 19 47 32 84 32 122
0 58 -49 46 -142 -24 -171 -49 -20 -87 -10 -122 32 -20 24 -34 33 -45 28 -25
-9 -21 -30 16 -70 80 -87 227 -53 256 60 20 81 -24 165 -100 187 -30 10 -43 8
-84 -10 -26 -11 -49 -21 -51 -21 -2 0 -4 27 -4 60 l0 60 115 0 c108 0 115 1
115 20 0 19 -7 20 -140 20 l-140 0 0 -104z"/>
<path d="M2391 5653 c-83 -41 -116 -176 -61 -256 35 -50 86 -77 150 -77 28 0
61 5 73 11 31 16 77 61 77 75 0 18 -43 26 -53 9 -13 -24 -63 -45 -108 -45 -33
0 -47 6 -75 34 -61 61 -53 66 111 66 l145 0 0 30 c0 51 -30 110 -73 141 -33
24 -50 29 -96 29 -31 0 -71 -8 -90 -17z m142 -44 c29 -15 56 -50 57 -71 0 -16
-12 -18 -115 -18 -132 0 -140 7 -81 66 28 28 42 34 76 34 23 0 51 -5 63 -11z"/>
<path d="M2753 5650 c-34 -21 -47 -49 -41 -96 4 -36 51 -69 120 -84 62 -13 78
-25 78 -56 0 -28 -26 -44 -74 -44 -25 0 -43 8 -65 30 -26 27 -34 29 -51 20
-19 -10 -20 -14 -7 -33 29 -44 65 -62 127 -62 95 0 149 56 120 125 -15 35 -47
55 -116 70 -79 18 -105 54 -62 84 36 25 76 20 106 -14 20 -22 33 -28 50 -24
27 8 28 14 0 49 -42 54 -127 70 -185 35z"/>
<path d="M3274 5386 c-9 -23 -1 -48 19 -60 25 -16 52 4 52 40 0 25 -4 29 -33
32 -22 2 -34 -2 -38 -12z"/>
<path d="M2225 5160 c4 -6 217 -10 606 -10 393 0 599 3 599 10 0 7 -209 10
-606 10 -401 0 -603 -3 -599 -10z"/>
<path d="M8520 5160 c0 -7 248 -10 725 -10 477 0 725 3 725 10 0 7 -248 10
-725 10 -477 0 -725 -3 -725 -10z"/>
<path d="M7566 3259 c-108 -26 -237 -122 -292 -217 -89 -150 -95 -347 -17
-504 146 -292 545 -353 782 -120 48 48 111 139 111 161 0 7 -100 45 -105 39
-1 -2 -10 -18 -20 -37 -31 -61 -97 -123 -168 -157 -156 -75 -316 -47 -438 77
-79 80 -102 142 -103 275 -1 99 0 103 39 180 70 136 181 204 335 204 135 0
250 -61 321 -170 18 -28 38 -49 43 -47 6 2 28 10 49 18 20 7 37 18 37 24 0 21
-58 102 -106 150 -29 28 -83 64 -133 88 -79 39 -88 41 -190 43 -58 2 -124 -1
-145 -7z"/>
<path d="M1720 2775 l0 -475 55 0 55 0 0 382 0 383 85 -155 c47 -85 122 -224
168 -307 l82 -153 42 0 c47 0 27 -29 194 275 51 94 114 208 141 255 l48 85 0
-382 0 -383 55 0 55 0 0 475 0 475 -64 0 -65 0 -43 -77 c-24 -43 -104 -189
-178 -325 -74 -136 -137 -248 -140 -248 -7 0 -11 6 -194 343 l-168 307 -64 0
-64 0 0 -475z"/>
<path d="M3207 3218 c-74 -175 -331 -775 -350 -818 -46 -104 -47 -100 21 -100
l59 0 35 78 c19 42 43 98 53 125 l18 47 248 0 c137 0 249 -4 249 -9 0 -5 23
-61 51 -125 l51 -116 59 0 c33 0 59 2 59 5 0 3 -58 142 -129 308 -71 166 -156
365 -189 442 -33 77 -65 152 -72 168 -13 26 -17 27 -81 27 -68 0 -69 0 -82
-32z m176 -308 c49 -115 91 -219 94 -230 5 -20 1 -20 -190 -20 l-196 0 31 73
c58 136 119 282 140 335 11 28 24 52 27 52 3 0 46 -95 94 -210z"/>
<path d="M3880 2775 l0 -475 55 0 55 0 0 382 0 383 88 -160 c202 -366 237
-431 240 -443 3 -9 18 -12 49 -10 l46 3 105 190 c57 105 133 242 168 305 l64
115 0 -382 0 -383 55 0 55 0 0 475 0 476 -66 -3 -65 -3 -177 -322 c-97 -178
-179 -323 -182 -323 -3 0 -85 145 -182 323 l-176 322 -66 3 -66 3 0 -476z"/>
<path d="M5017 3243 c-4 -3 -7 -217 -7 -475 l0 -468 68 0 67 1 82 122 c228
341 434 642 440 645 5 1 8 -170 8 -380 l0 -383 53 -3 52 -3 0 475 0 476 -60 0
c-35 0 -64 -5 -70 -12 -7 -7 -108 -155 -226 -328 -118 -173 -235 -344 -259
-380 l-45 -64 0 392 0 392 -48 0 c-27 0 -52 -3 -55 -7z"/>
<path d="M5940 2776 l0 -476 55 0 55 0 0 210 0 210 275 0 275 0 0 -210 0 -210
55 0 55 0 0 475 0 475 -55 0 -55 0 0 -210 0 -210 -275 0 -275 0 -2 208 -3 207
-52 3 -53 3 0 -475z"/>
<path d="M8637 3218 c-54 -129 -134 -315 -162 -378 -58 -132 -225 -527 -225
-534 0 -3 27 -6 59 -6 l59 0 53 125 53 125 246 0 245 0 51 -123 52 -122 61 -3
c33 -2 61 -1 61 2 0 3 -74 177 -164 388 -90 211 -178 419 -196 463 -19 44 -38
83 -44 87 -6 4 -39 8 -73 8 -61 0 -63 -1 -76 -32z m105 -140 c27 -68 124 -299
147 -348 11 -25 21 -51 21 -57 0 -10 -45 -13 -195 -13 l-194 0 43 103 c24 56
67 159 97 230 29 70 56 127 59 127 3 0 13 -19 22 -42z"/>
<path d="M9520 2919 c0 -215 -4 -346 -11 -376 -22 -86 -102 -143 -201 -143
l-38 0 0 -130 0 -130 55 0 55 0 0 80 0 80 365 0 364 0 3 -77 3 -78 53 -3 52
-3 0 130 0 131 -50 0 -50 0 0 425 0 425 -300 0 -300 0 0 -331z m490 -149 l0
-370 -231 0 -231 0 16 23 c62 87 61 76 64 410 l3 307 190 0 189 0 0 -370z"/>
</g>
</svg>
